<svg width="352" height="263" viewBox="0 0 352 263" fill="none" xmlns="http://www.w3.org/2000/svg">
<path d="M17.6849 247.384C20.2516 247.384 22.6349 247.201 24.8349 247.018C26.4849 246.651 27.9516 245.552 27.5849 243.903C26.8516 237.675 25.2016 228.698 25.2016 220.271C25.2016 216.791 27.2182 214.409 30.5182 214.409C42.9849 214.409 53.6182 228.332 53.8016 243.903C53.8016 245.735 55.0849 246.468 56.7349 246.834C59.1182 247.201 62.4182 247.201 64.2516 247.201C65.7182 247.201 68.4682 247.018 70.6682 246.834C72.3182 246.468 73.6016 245.552 73.6016 243.903C73.6016 225.767 67.1849 214.959 51.4182 211.112C49.5849 210.562 49.5849 208.913 51.6016 208.547C65.3516 205.616 72.6849 196.639 72.6849 187.113C72.6849 174.473 60.5849 168.794 38.9516 168.794C31.6182 168.794 14.2016 169.16 12.1849 169.344C10.7182 169.527 9.61824 170.626 9.61824 171.908C9.06824 185.831 7.41824 227.599 7.41824 244.086C7.41824 245.552 8.51824 246.651 10.1682 247.018C11.2682 247.201 14.3849 247.384 17.6849 247.384ZM30.5182 202.502C27.4016 203.234 25.2016 202.318 24.8349 199.021C24.4682 195.357 24.6516 190.044 24.8349 186.747C25.0182 184.549 26.4849 183.083 29.0516 182.717C31.8016 182.533 34.3682 182.533 37.8516 182.533C50.1349 182.533 56.0016 184.915 56.0016 190.594C56.0016 196.639 46.8349 201.036 30.5182 202.502Z" fill="white"/>
<path d="M109.182 247.75C126.783 247.75 139.799 237.675 139.799 217.34C139.799 197.555 126.966 186.014 109.182 186.014C91.3992 186.014 78.3825 197.555 78.3825 217.34C78.3825 237.675 91.5825 247.75 109.182 247.75ZM109.182 234.744C100.382 234.744 94.1492 228.332 94.1492 216.791C94.1492 205.799 100.199 199.021 109.182 199.021C117.982 199.021 124.216 205.799 124.216 216.791C124.216 228.332 117.799 234.744 109.182 234.744Z" fill="white"/>
<path d="M168.034 247.75C175.917 247.75 182.7 244.453 186.917 238.407C188.017 236.392 189.3 236.759 189.117 239.14C188.934 240.972 188.75 242.254 188.567 243.903C188.2 245.735 189.484 246.834 190.95 247.018C192.6 247.201 195.534 247.384 197.367 247.384C198.65 247.384 201.767 247.201 203.6 247.018C205.067 246.651 205.984 245.735 205.984 243.903C205.984 216.974 205.8 185.648 204.15 170.443C203.967 168.977 203.234 168.061 201.767 167.695C200.117 167.145 197.55 167.145 195.167 167.145C192.784 167.145 190.034 167.328 188.567 167.512C187.284 167.878 186 168.977 186.184 170.626C187.284 177.221 188.75 186.197 188.934 195.174C189.117 197.372 187.65 197.739 186.55 195.907C182.517 189.312 175.734 186.197 168.034 186.197C154.1 186.197 143.834 197.555 143.834 217.34C143.834 237.308 154.1 247.75 168.034 247.75ZM174.45 234.56C166.017 234.56 159.6 227.965 159.6 216.791C159.6 205.799 165.65 199.387 174.45 199.387C182.884 199.387 189.3 205.616 189.3 216.607C189.3 227.965 182.7 234.56 174.45 234.56Z" fill="white"/>
<path d="M241.876 247.75C259.476 247.75 272.492 237.675 272.492 217.34C272.492 197.555 259.659 186.014 241.876 186.014C224.092 186.014 211.076 197.555 211.076 217.34C211.076 237.675 224.276 247.75 241.876 247.75ZM241.876 234.744C233.076 234.744 226.842 228.332 226.842 216.791C226.842 205.799 232.892 199.021 241.876 199.021C250.676 199.021 256.909 205.799 256.909 216.791C256.909 228.332 250.492 234.744 241.876 234.744Z" fill="white"/>
<path d="M286.793 247.384C288.443 247.384 291.193 247.201 293.027 247.018C294.493 246.651 295.593 245.552 295.41 243.903C293.943 223.019 294.86 189.495 297.243 170.809C297.427 169.16 296.327 167.878 294.86 167.695C293.393 167.328 290.093 167.328 288.077 167.328C286.243 167.328 284.043 167.512 282.393 167.695C280.927 167.878 279.827 168.977 279.643 170.443C278.36 186.93 277.81 218.439 277.81 243.903C277.81 245.735 278.727 246.651 280.193 247.018C281.843 247.201 285.143 247.384 286.793 247.384Z" fill="white"/>
<path d="M320.302 247.384C322.319 247.384 325.252 247.201 327.085 247.018C328.369 246.651 329.652 245.735 329.469 243.903C328.735 234.011 327.085 217.89 327.635 199.754C327.635 198.288 328.552 197.189 329.835 197.189C333.502 197.189 339.552 197.739 343.035 198.105C344.685 198.288 345.969 196.823 345.969 195.174C346.152 193.342 346.152 191.51 345.969 189.678C345.969 187.846 344.502 186.564 342.852 186.747C339.919 187.113 337.535 187.296 334.602 187.296C331.119 187.296 328.002 186.014 327.819 183.816C327.635 180.885 330.202 178.686 333.869 178.686C336.252 178.686 339.552 179.969 341.202 181.618C343.035 183.633 345.602 182.717 345.602 179.602C345.602 177.038 345.602 173.74 345.419 171.175C345.419 169.893 344.685 168.611 343.585 168.244C340.102 166.596 335.152 165.68 331.669 165.68C319.935 165.68 309.669 171.542 311.869 185.098C312.052 186.381 310.952 186.93 309.852 186.93H304.352C302.702 186.93 301.419 188.396 301.419 189.861V194.258C301.419 195.907 302.702 197.189 304.352 197.189H309.302C310.585 197.189 311.319 198.105 311.319 199.57C310.952 213.127 310.585 227.049 310.585 243.537C310.585 245.369 311.685 246.468 313.152 246.651C314.985 247.201 318.285 247.384 320.302 247.384Z" fill="white"/>
<mask id="mask0_31_2" style="mask-type:luminance" maskUnits="userSpaceOnUse" x="23" y="49" width="83" height="153">
<path d="M105.233 49.2134H23.4667V201.264H105.233V49.2134Z" fill="white"/>
</mask>
<g mask="url(#mask0_31_2)">
<path d="M102.3 194.486C102.3 191.188 101.2 187.158 100.833 185.692C98.6333 176.716 96.4333 167.556 94.2333 158.58C92.95 153.634 91.85 148.504 92.0333 143.375C92.4 136.963 94.9667 131.101 97.1667 125.055C99.55 118.46 103.033 111.682 103.767 104.538C104.5 97.2101 100.833 90.0655 95.15 99.4084C91.85 104.904 94.6 132.933 81.4 127.803C71.5 123.773 77 104.538 79.9333 98.3092C82.8667 92.2639 86.35 86.4017 88.1833 79.8067C90.0167 73.5781 90.3833 60.5714 83.6 56.9075C70.95 49.9462 75.5333 76.8756 74.8 82.5546C73.8833 89.516 70.7667 103.805 61.05 96.6605C52.8 90.6151 50.2333 76.5092 46.3833 67.716C44.1833 62.5865 37.7667 50.8622 31.7167 49.9462C27.8667 49.3966 24.3833 53.2437 24.0167 57.0907C23.65 61.121 25.4833 64.7849 27.3167 68.2655C32.2667 77.242 38.3167 85.3025 45.4667 92.6302C52.6167 99.958 57.2 106.37 59.7667 116.262C60.1333 117.361 60.3167 118.46 59.5833 119.376C59.0333 120.292 57.75 120.476 56.65 120.476C52.25 120.476 48.0333 118.46 43.6333 118.277C39.2333 118.094 33.9167 121.208 34.4667 125.605C34.8333 128.353 37.4 130.368 39.9667 131.101C42.7167 131.834 45.4667 131.65 48.2167 131.65C67.65 131.834 83.4167 153.45 87.0833 170.671C88.3667 176.899 89.8333 195.035 96.4333 198.333C101.017 200.348 102.3 197.783 102.3 194.486Z" fill="white"/>
</g>
<mask id="mask1_31_2" style="mask-type:luminance" maskUnits="userSpaceOnUse" x="246" y="49" width="84" height="153">
<path d="M329.817 49.2134H246.95V201.264H329.817V49.2134Z" fill="white"/>
</mask>
<g mask="url(#mask1_31_2)">
<path d="M250.983 194.486C250.983 191.188 252.083 187.158 252.45 185.692C254.65 176.716 256.85 167.556 259.05 158.58C260.333 153.634 261.433 148.504 261.25 143.375C260.883 136.963 258.317 131.101 256.117 125.055C253.733 118.46 250.25 111.682 249.517 104.538C248.783 97.2101 252.45 90.0655 258.133 99.4084C261.433 104.904 258.683 132.933 271.883 127.803C281.783 123.956 276.283 104.721 273.35 98.4924C270.417 92.4471 266.933 86.5849 265.1 79.9899C263.267 73.7613 262.9 60.7546 269.683 57.0907C282.333 50.1294 277.75 77.0588 278.483 82.7378C279.4 89.6992 282.517 103.988 292.233 96.8437C300.483 90.7983 303.05 76.6924 306.9 67.8992C309.283 62.7697 315.517 51.0454 321.75 50.1294C325.6 49.5798 329.083 53.4269 329.45 57.2739C329.817 61.3042 327.983 64.9681 326.15 68.4487C321.2 77.4252 315.15 85.4857 308 92.8134C300.85 100.141 296.267 106.553 293.7 116.445C293.517 117.545 293.15 118.644 293.883 119.56C294.433 120.476 295.717 120.659 296.817 120.659C301.217 120.659 305.433 118.644 309.833 118.46C314.233 118.277 319.55 121.392 319 125.788C318.633 128.536 316.067 130.551 313.5 131.284C310.75 132.017 308 131.834 305.25 131.834C285.817 132.017 270.05 153.634 266.383 170.854C265.1 177.082 263.45 195.218 257.033 198.516C252.083 200.348 250.983 197.783 250.983 194.486Z" fill="white"/>
</g>
<path d="M90.6086 14.088C90.6086 17.416 89.1686 19.944 86.2886 21.672C87.8566 22.248 89.1686 23.24 90.2246 24.648C91.2806 26.056 91.8086 28.056 91.8086 30.648C91.8086 33.208 90.8486 35.24 88.9286 36.744C87.0406 38.248 84.3206 39 80.7686 39H69.4406C68.8966 39 68.4486 38.824 68.0966 38.472C67.7446 38.088 67.5686 37.592 67.5686 36.984V6.264C67.5686 5.912 67.6166 5.688 67.7126 5.592C67.8406 5.464 68.0806 5.4 68.4326 5.4H79.3766C86.8646 5.4 90.6086 8.296 90.6086 14.088ZM76.7846 13.176V19.464H77.0246C80.0966 19.464 81.6326 18.44 81.6326 16.392C81.6326 15.272 81.3286 14.456 80.7206 13.944C80.1446 13.432 79.1686 13.176 77.7926 13.176H76.7846ZM76.7846 25.128V31.368H77.6486C79.0246 31.368 80.0326 31.112 80.6726 30.6C81.3126 30.088 81.6326 29.272 81.6326 28.152C81.6326 27.032 81.3286 26.248 80.7206 25.8C80.1446 25.352 79.1686 25.128 77.7926 25.128H76.7846ZM104.085 38.712C104.085 38.968 102.613 39.096 99.6686 39.096C96.7566 39.096 95.3006 38.984 95.3006 38.76V15.192C95.3006 14.968 96.7566 14.856 99.6686 14.856C102.613 14.856 104.085 14.952 104.085 15.144V38.712ZM104.085 12.312C104.085 12.536 102.613 12.648 99.6686 12.648C96.7566 12.648 95.3006 12.552 95.3006 12.36V5.448C95.3006 5.128 96.7566 4.968 99.6686 4.968C102.613 4.968 104.085 5.064 104.085 5.256V12.312ZM126.57 37.704C124.554 38.888 121.962 39.48 118.794 39.48C115.626 39.48 112.954 38.408 110.778 36.264C108.602 34.088 107.514 31.096 107.514 27.288C107.514 23.448 108.554 20.36 110.634 18.024C112.746 15.688 115.402 14.52 118.602 14.52C121.802 14.52 124.266 15.336 125.994 16.968C127.754 18.6 128.634 20.584 128.634 22.92C128.634 28.104 125.658 30.696 119.706 30.696H116.394C116.394 31.656 116.65 32.328 117.162 32.712C117.706 33.064 118.49 33.24 119.514 33.24C121.754 33.24 123.882 32.728 125.898 31.704C125.93 31.672 126.074 31.896 126.33 32.376C127.098 33.752 127.482 34.92 127.482 35.88C127.482 36.808 127.178 37.416 126.57 37.704ZM120.57 23.832C120.57 22.488 119.914 21.816 118.602 21.816C117.994 21.816 117.466 22.008 117.018 22.392C116.602 22.744 116.394 23.272 116.394 23.976V25.464H118.986C120.042 25.464 120.57 24.92 120.57 23.832ZM141.801 38.712C141.801 38.936 140.649 39.048 138.345 39.048C135.145 38.952 133.545 38.776 133.545 38.52V22.968H132.297C131.465 22.968 130.921 22.264 130.665 20.856C130.601 20.44 130.569 20.024 130.569 19.608C130.569 18.616 130.761 17.624 131.145 16.632C131.721 15.224 132.617 14.52 133.833 14.52C135.049 14.52 136.137 14.808 137.097 15.384C138.057 15.96 138.697 16.536 139.017 17.112C141.033 15.384 143.433 14.52 146.217 14.52C149.001 14.52 151.017 15.272 152.265 16.776C153.513 18.28 154.137 20.744 154.137 24.168V38.568C154.137 38.952 152.761 39.144 150.009 39.144C147.289 39.144 145.929 38.952 145.929 38.568V24.696C145.929 23.096 145.369 22.296 144.249 22.296C143.929 22.296 143.481 22.44 142.905 22.728C142.329 22.984 141.961 23.176 141.801 23.304V38.712ZM156.335 15.144C156.239 14.888 157.727 14.76 160.799 14.76C163.903 14.76 165.455 14.84 165.455 15L168.911 31.32L171.503 15.24C171.599 14.952 173.183 14.808 176.255 14.808C179.359 14.808 180.863 14.936 180.767 15.192L173.999 38.664C173.775 38.984 171.871 39.144 168.287 39.144C164.703 39.144 162.783 38.904 162.527 38.424L156.335 15.144ZM201.382 37.704C199.366 38.888 196.774 39.48 193.606 39.48C190.438 39.48 187.766 38.408 185.59 36.264C183.414 34.088 182.326 31.096 182.326 27.288C182.326 23.448 183.366 20.36 185.446 18.024C187.558 15.688 190.214 14.52 193.414 14.52C196.614 14.52 199.078 15.336 200.806 16.968C202.566 18.6 203.446 20.584 203.446 22.92C203.446 28.104 200.47 30.696 194.518 30.696H191.206C191.206 31.656 191.462 32.328 191.974 32.712C192.518 33.064 193.302 33.24 194.326 33.24C196.566 33.24 198.694 32.728 200.71 31.704C200.742 31.672 200.886 31.896 201.142 32.376C201.91 33.752 202.294 34.92 202.294 35.88C202.294 36.808 201.99 37.416 201.382 37.704ZM195.382 23.832C195.382 22.488 194.726 21.816 193.414 21.816C192.806 21.816 192.278 22.008 191.83 22.392C191.414 22.744 191.206 23.272 191.206 23.976V25.464H193.798C194.854 25.464 195.382 24.92 195.382 23.832ZM216.614 38.712C216.614 38.936 215.462 39.048 213.158 39.048C209.958 38.952 208.358 38.776 208.358 38.52V22.968H207.11C206.278 22.968 205.734 22.264 205.478 20.856C205.414 20.44 205.382 20.024 205.382 19.608C205.382 18.616 205.574 17.624 205.958 16.632C206.534 15.224 207.43 14.52 208.646 14.52C209.862 14.52 210.95 14.808 211.91 15.384C212.87 15.96 213.51 16.536 213.83 17.112C215.846 15.384 218.246 14.52 221.03 14.52C223.814 14.52 225.83 15.272 227.078 16.776C228.326 18.28 228.95 20.744 228.95 24.168V38.568C228.95 38.952 227.574 39.144 224.822 39.144C222.102 39.144 220.742 38.952 220.742 38.568V24.696C220.742 23.096 220.182 22.296 219.062 22.296C218.742 22.296 218.294 22.44 217.718 22.728C217.142 22.984 216.774 23.176 216.614 23.304V38.712ZM232.779 15.288C232.779 14.936 234.155 14.76 236.907 14.76C239.659 14.76 241.035 14.936 241.035 15.288V29.304C241.035 30.904 241.547 31.704 242.571 31.704C243.339 31.704 244.203 31.368 245.163 30.696V15.288C245.163 14.968 246.523 14.808 249.243 14.808C251.963 14.808 253.323 14.968 253.323 15.288V31.032H254.571C255.659 31.032 256.203 32.072 256.203 34.152C256.203 35.208 255.979 36.28 255.531 37.368C254.891 38.776 254.027 39.48 252.939 39.48C250.795 39.48 249.211 38.6 248.187 36.84L248.139 36.888C246.187 38.616 244.091 39.48 241.851 39.48C238.747 39.48 236.459 38.712 234.987 37.176C233.515 35.608 232.779 33.032 232.779 29.448V15.288ZM277.273 37.704C275.257 38.888 272.665 39.48 269.497 39.48C266.329 39.48 263.657 38.408 261.481 36.264C259.305 34.088 258.217 31.096 258.217 27.288C258.217 23.448 259.257 20.36 261.337 18.024C263.449 15.688 266.105 14.52 269.305 14.52C272.505 14.52 274.969 15.336 276.697 16.968C278.457 18.6 279.337 20.584 279.337 22.92C279.337 28.104 276.361 30.696 270.409 30.696H267.097C267.097 31.656 267.353 32.328 267.865 32.712C268.409 33.064 269.193 33.24 270.217 33.24C272.457 33.24 274.585 32.728 276.601 31.704C276.633 31.672 276.777 31.896 277.033 32.376C277.801 33.752 278.185 34.92 278.185 35.88C278.185 36.808 277.881 37.416 277.273 37.704ZM271.273 23.832C271.273 22.488 270.617 21.816 269.305 21.816C268.697 21.816 268.169 22.008 267.721 22.392C267.305 22.744 267.097 23.272 267.097 23.976V25.464H269.689C270.745 25.464 271.273 24.92 271.273 23.832ZM142.266 82.096C142.266 85.232 143.45 86.8 145.818 86.8C147.354 86.8 148.634 86.496 149.658 85.888C150.138 85.888 150.522 86.72 150.81 88.384C151.13 90.016 151.29 91.136 151.29 91.744C151.29 92.32 151.21 92.704 151.05 92.896C149.354 93.952 147.034 94.48 144.09 94.48C141.146 94.48 138.634 93.392 136.554 91.216C134.506 89.008 133.482 86.016 133.482 82.24C133.482 78.432 134.49 75.36 136.506 73.024C138.554 70.688 141.258 69.52 144.618 69.52C148.01 69.52 150.362 70.336 151.674 71.968C151.962 72.32 152.106 72.848 152.106 73.552C152.106 74.224 151.978 75.056 151.722 76.048C151.146 78.096 150.394 79.28 149.466 79.6C149.338 79.632 149.146 79.648 148.89 79.648C148.666 79.648 148.378 79.456 148.026 79.072C146.778 77.824 145.77 77.2 145.002 77.2C144.266 77.2 143.626 77.584 143.082 78.352C142.538 79.12 142.266 80.368 142.266 82.096ZM162.754 93.664C162.754 93.952 161.41 94.096 158.722 94.096C156.066 94.096 154.738 93.872 154.738 93.424V60.544C154.738 60.32 155.234 60.16 156.226 60.064C157.218 59.968 158.05 59.92 158.722 59.92C161.41 59.92 162.754 60.208 162.754 60.784V70.384C164.546 69.84 165.906 69.568 166.834 69.568C169.266 69.568 171.186 70.224 172.594 71.536C174.002 72.816 174.706 75.216 174.706 78.736V93.616C174.706 93.904 173.458 94.048 170.962 94.048C168.146 93.952 166.738 93.792 166.738 93.568V79.456C166.738 77.888 166.226 77.104 165.202 77.104C164.498 77.104 163.682 77.44 162.754 78.112V93.664ZM196.929 92.704C194.913 93.888 192.321 94.48 189.153 94.48C185.985 94.48 183.313 93.408 181.137 91.264C178.961 89.088 177.873 86.096 177.873 82.288C177.873 78.448 178.913 75.36 180.993 73.024C183.105 70.688 185.761 69.52 188.961 69.52C192.161 69.52 194.625 70.336 196.353 71.968C198.113 73.6 198.993 75.584 198.993 77.92C198.993 83.104 196.017 85.696 190.065 85.696H186.753C186.753 86.656 187.009 87.328 187.521 87.712C188.065 88.064 188.849 88.24 189.873 88.24C192.113 88.24 194.241 87.728 196.257 86.704C196.289 86.672 196.433 86.896 196.689 87.376C197.457 88.752 197.841 89.92 197.841 90.88C197.841 91.808 197.537 92.416 196.929 92.704ZM190.929 78.832C190.929 77.488 190.273 76.816 188.961 76.816C188.353 76.816 187.825 77.008 187.377 77.392C186.961 77.744 186.753 78.272 186.753 78.976V80.464H189.345C190.401 80.464 190.929 79.92 190.929 78.832ZM202.033 77.68C201.809 77.68 201.697 76.992 201.697 75.616C201.697 71.872 202.001 70 202.609 70H217.921C218.145 70 218.641 70.704 219.409 72.112C220.177 73.52 220.561 74.32 220.561 74.512C220.561 74.672 220.545 74.768 220.513 74.8L211.201 86.512L219.553 85.936C220.065 85.936 220.321 87.072 220.321 89.344C220.321 90.208 220.241 91.2 220.081 92.32C219.921 93.44 219.649 94 219.265 94H203.905C203.425 94 202.849 93.2 202.177 91.6C201.505 90 201.169 89.04 201.169 88.72C201.169 88.368 201.201 88.16 201.265 88.096L210.433 77.392L202.033 77.68Z" fill="white"/>
</svg>
