<svg xmlns="http://www.w3.org/2000/svg" xmlns:xlink="http://www.w3.org/1999/xlink" width="192" zoomAndPan="magnify" viewBox="0 0 144 143.999998" height="192" preserveAspectRatio="xMidYMid meet" version="1.0"><defs><clipPath id="fd45c539f1"><path d="M 41.277344 0 L 59 0 L 59 19 L 41.277344 19 Z M 41.277344 0 " clip-rule="nonzero"/></clipPath><clipPath id="d87e23c22a"><path d="M 58 9 L 102.71875 9 L 102.71875 144 L 58 144 Z M 58 9 " clip-rule="nonzero"/></clipPath></defs><path fill="#ffccaa" d="M 58.835938 24.90625 C 59.644531 26.296875 59.585938 27.84375 58.707031 28.351562 C 57.824219 28.863281 56.078125 29.382812 55.648438 26.75 C 55.40625 25.261719 54.484375 21.984375 54.867188 21.542969 C 55.539062 20.78125 58.027344 23.507812 58.835938 24.90625 Z M 58.835938 24.90625 " fill-opacity="1" fill-rule="nonzero"/><g clip-path="url(#fd45c539f1)"><path fill="#ffffff" d="M 46.582031 18.003906 L 51.242188 13.070312 L 57.148438 14.820312 L 54.375 9.125 L 58.300781 3.734375 L 51.925781 5.148438 L 48.445312 0.0664062 L 47.28125 6.632812 L 41.203125 8.882812 L 46.855469 11.53125 Z M 46.582031 18.003906 " fill-opacity="1" fill-rule="nonzero"/></g><g clip-path="url(#d87e23c22a)"><path fill="#ffffff" d="M 83.585938 9.214844 C 83.667969 9.210938 83.753906 9.214844 83.835938 9.226562 C 84.496094 9.332031 84.917969 9.972656 84.78125 10.65625 L 82.335938 23.878906 L 97.804688 26.179688 L 100.25 12.949219 C 100.371094 12.253906 101.023438 11.765625 101.695312 11.878906 C 102.351562 11.984375 102.777344 12.625 102.640625 13.304688 L 78.800781 142.261719 C 78.519531 143.9375 76.082031 143.574219 76.414062 141.90625 L 78.058594 133.003906 L 62.589844 130.710938 L 60.941406 139.609375 C 60.660156 141.289062 58.21875 140.925781 58.550781 139.257812 L 68.386719 86.070312 C 66.472656 75.632812 65.203125 67.664062 65.183594 61.40625 C 64.605469 61.179688 64.042969 60.929688 63.761719 60.296875 L 65.183594 60.613281 C 65.199219 59.507812 65.257812 58.457031 65.359375 57.453125 L 68.089844 57.746094 C 68.019531 58.386719 67.976562 59.054688 67.953125 59.757812 C 68.050781 59.707031 68.152344 59.65625 68.265625 59.609375 C 70.109375 59.691406 71.71875 59.984375 73.117188 60.476562 L 82.394531 10.296875 C 82.496094 9.691406 83.011719 9.238281 83.585938 9.214844 Z M 63.761719 60.296875 L 63.691406 60.28125 L 63.753906 60.28125 C 63.753906 60.285156 63.761719 60.292969 63.761719 60.296875 Z M 81.996094 25.734375 L 79.566406 38.878906 L 95.03125 41.171875 L 97.460938 28.03125 Z M 79.222656 40.730469 L 76.792969 53.871094 L 92.261719 56.171875 L 94.691406 43.027344 Z M 76.449219 55.726562 L 75.375 61.546875 C 76.230469 62.078125 76.980469 62.722656 77.632812 63.480469 C 79.097656 65.183594 79.96875 67.328125 80.4375 69.820312 L 89.488281 71.167969 L 91.921875 58.023438 Z M 67.941406 62.21875 C 68.042969 66.527344 68.726562 71.828125 69.8125 78.351562 L 72.640625 63.0625 C 71.367188 62.582031 69.820312 62.289062 67.941406 62.21875 Z M 74.871094 64.285156 L 74.019531 68.871094 L 77.902344 69.445312 C 77.484375 67.75 76.84375 66.351562 75.925781 65.28125 C 75.617188 64.921875 75.261719 64.589844 74.871094 64.285156 Z M 73.675781 70.722656 L 71.25 83.867188 L 86.714844 86.164062 L 87.671875 80.992188 L 87.671875 80.988281 L 87.5625 80.695312 L 87.570312 81.214844 L 87.449219 80.773438 L 87.402344 81.289062 L 87.402344 81.429688 C 87.03125 81.566406 86.394531 81.527344 86.335938 81.527344 L 86.175781 81.257812 L 86.390625 80.867188 L 86.015625 81.171875 L 86.269531 80.804688 L 85.863281 81.066406 L 86.148438 80.734375 L 85.722656 80.949219 L 86.039062 80.648438 L 85.589844 80.8125 L 85.933594 80.554688 L 85.476562 80.660156 L 85.839844 80.445312 L 85.375 80.5 L 85.753906 80.320312 L 85.289062 80.324219 L 85.683594 80.199219 L 85.21875 80.144531 L 85.625 80.0625 L 85.164062 79.957031 L 85.578125 79.917969 L 85.132812 79.757812 L 85.546875 79.773438 L 85.117188 79.566406 L 85.527344 79.625 L 85.121094 79.367188 L 85.523438 79.476562 L 85.144531 79.171875 L 85.535156 79.324219 L 85.183594 78.980469 L 85.558594 79.179688 L 85.242188 78.792969 L 85.597656 79.03125 L 85.320312 78.617188 L 85.648438 78.894531 L 85.40625 78.449219 L 85.710938 78.761719 L 85.515625 78.289062 L 85.789062 78.636719 L 85.640625 78.144531 L 85.875 78.527344 L 85.773438 78.015625 L 85.972656 78.421875 L 85.917969 77.902344 L 86.078125 78.332031 L 86.078125 77.808594 L 86.199219 78.25 L 86.242188 77.734375 L 86.320312 78.1875 L 86.414062 77.679688 L 86.449219 78.136719 L 86.589844 77.644531 L 86.578125 78.101562 L 86.765625 77.628906 L 86.710938 78.082031 L 86.941406 77.632812 L 86.851562 78.078125 L 87.121094 77.65625 L 86.984375 78.089844 L 87.292969 77.703125 L 87.117188 78.117188 L 87.460938 77.769531 L 87.25 78.160156 L 87.625 77.851562 L 87.371094 78.214844 L 87.777344 77.957031 L 87.492188 78.289062 L 87.917969 78.074219 L 87.601562 78.375 L 88.050781 78.210938 L 87.707031 78.472656 C 87.859375 78.4375 87.996094 78.398438 88.148438 78.367188 L 87.800781 78.582031 L 88.128906 78.539062 L 89.144531 73.023438 L 80.714844 71.765625 C 80.957031 74.085938 80.933594 76.652344 80.761719 79.417969 L 78.402344 79.21875 C 78.589844 76.230469 78.566406 73.621094 78.269531 71.40625 Z M 88.117188 78.59375 L 87.886719 78.699219 L 88.097656 78.699219 L 88.117188 78.597656 Z M 88.082031 78.789062 L 87.957031 78.832031 L 88.074219 78.84375 C 88.074219 78.84375 88.074219 78.84375 88.074219 78.839844 Z M 88.050781 78.957031 L 88.015625 78.964844 L 88.046875 78.976562 C 88.046875 78.976562 88.046875 78.976562 88.046875 78.972656 Z M 87.667969 80.605469 L 87.695312 80.875 L 87.695312 80.878906 L 87.695312 80.875 L 87.722656 80.730469 Z M 71.113281 85.75 C 71.519531 87.972656 71.945312 90.269531 72.410156 92.734375 L 69.714844 93.226562 C 69.683594 93.042969 69.648438 92.875 69.617188 92.691406 L 68.476562 98.859375 L 83.949219 101.160156 L 84.488281 98.234375 C 84.554688 97.6875 84.648438 97.109375 84.820312 96.433594 L 86.375 88.015625 Z M 68.132812 100.714844 L 65.703125 113.859375 L 81.175781 116.15625 L 83.605469 103.015625 Z M 65.359375 115.710938 L 62.929688 128.851562 L 78.402344 131.152344 L 80.832031 118.011719 Z M 65.359375 115.710938 " fill-opacity="1" fill-rule="evenodd"/></g><path fill="#dcb37d" d="M 49.738281 20.554688 C 50.925781 24.636719 52.304688 28.460938 54.667969 31.519531 C 57.03125 34.578125 60.355469 36.941406 65.757812 38.164062 L 65.179688 40.671875 C 59.28125 39.339844 55.316406 36.582031 52.621094 33.09375 C 49.925781 29.605469 48.472656 25.457031 47.261719 21.28125 Z M 49.738281 20.554688 " fill-opacity="1" fill-rule="evenodd"/><path fill="#dcb37d" d="M 93.585938 29.628906 L 96.019531 31.199219 C 93.03125 36.003906 89.5625 39.539062 85.078125 40.632812 C 80.59375 41.730469 75.300781 40.152344 69.445312 35.460938 L 71.035156 33.558594 C 76.425781 37.878906 80.503906 38.945312 84.03125 38.085938 C 87.5625 37.222656 90.746094 34.199219 93.585938 29.628906 Z M 93.585938 29.628906 " fill-opacity="1" fill-rule="evenodd"/><path fill="#ffccaa" d="M 47.371094 14.421875 C 48.535156 14.289062 49.636719 15.726562 49.832031 17.640625 C 50.03125 19.5625 49.253906 21.25 48.09375 21.425781 C 46.925781 21.609375 45.808594 20.214844 45.574219 18.214844 C 45.394531 16.207031 46.199219 14.554688 47.371094 14.421875 Z M 47.371094 14.421875 " fill-opacity="1" fill-rule="nonzero"/><path fill="#ffccaa" d="M 97.570312 25.078125 C 98.675781 25.804688 98.757812 27.640625 97.753906 29.199219 C 96.75 30.757812 95.035156 31.460938 93.90625 30.78125 C 92.777344 30.09375 92.65625 28.277344 93.675781 26.628906 C 94.75 25.015625 96.46875 24.355469 97.570312 25.082031 Z M 97.570312 25.078125 " fill-opacity="1" fill-rule="nonzero"/><path fill="#ffffff" d="M 95.683594 31.84375 C 94.730469 31.058594 93.75 30.90625 92.765625 30.8125 C 92.433594 30.78125 92.234375 30.371094 92.308594 30.074219 L 92.398438 29.714844 C 92.472656 29.421875 92.78125 29.339844 93.117188 29.386719 C 94.164062 29.535156 95.1875 29.757812 96.039062 30.414062 C 96.320312 30.628906 96.570312 30.859375 96.492188 31.152344 L 96.40625 31.515625 C 96.332031 31.808594 95.957031 32.0625 95.683594 31.84375 Z M 95.683594 31.84375 " fill-opacity="1" fill-rule="nonzero"/><path fill="#dcb37d" d="M 67.949219 62.8125 C 67.972656 63.433594 67.988281 63.957031 68.035156 64.539062 C 67.125 64.707031 66.234375 64.851562 65.328125 64.988281 C 65.28125 64.46875 65.257812 63.8125 65.238281 63.277344 C 66.15625 63.132812 67.042969 62.980469 67.949219 62.8125 Z M 68.207031 66.753906 C 68.238281 67.34375 68.320312 67.882812 68.382812 68.4375 C 67.472656 68.570312 66.574219 68.675781 65.660156 68.785156 C 65.621094 68.492188 65.554688 67.671875 65.496094 67.167969 C 66.414062 67.039062 67.304688 66.90625 68.207031 66.753906 Z M 68.636719 70.601562 C 68.703125 71.171875 68.757812 71.621094 68.84375 72.144531 C 67.925781 72.316406 67.042969 72.449219 66.140625 72.59375 C 66.070312 72.058594 65.996094 71.542969 65.9375 71.101562 C 66.855469 70.9375 67.746094 70.789062 68.636719 70.601562 Z M 69.15625 74.316406 C 69.234375 74.828125 69.328125 75.410156 69.410156 75.945312 C 68.511719 76.117188 67.613281 76.261719 66.710938 76.414062 C 66.625 75.875 66.539062 75.300781 66.460938 74.78125 C 67.367188 74.632812 68.257812 74.484375 69.15625 74.316406 Z M 69.742188 77.96875 C 69.84375 78.585938 69.933594 79.117188 70.039062 79.753906 C 69.152344 79.925781 68.257812 80.074219 67.347656 80.222656 C 67.242188 79.605469 67.152344 79.070312 67.054688 78.472656 C 67.96875 78.304688 68.863281 78.148438 69.742188 77.96875 Z M 70.449219 82.128906 C 70.523438 82.550781 70.621094 83.078125 70.695312 83.507812 C 69.796875 83.679688 68.910156 83.804688 68.011719 83.957031 C 67.933594 83.523438 67.832031 83.007812 67.757812 82.585938 C 68.660156 82.441406 69.554688 82.3125 70.449219 82.128906 Z M 71.085938 85.613281 C 71.183594 86.179688 71.289062 86.773438 71.398438 87.355469 C 70.507812 87.503906 69.605469 87.59375 68.703125 87.722656 C 68.601562 87.183594 68.5 86.628906 68.40625 86.101562 C 69.339844 85.9375 70.21875 85.777344 71.085938 85.613281 Z M 71.800781 89.539062 C 71.914062 90.152344 72.015625 90.671875 72.132812 91.304688 C 71.238281 91.433594 70.332031 91.519531 69.421875 91.632812 C 69.308594 91.023438 69.21875 90.511719 69.109375 89.921875 C 70.011719 89.789062 70.90625 89.683594 71.800781 89.539062 Z M 71.800781 89.539062 " fill-opacity="1" fill-rule="nonzero"/><path fill="#dcb37d" d="M 73.761719 90.96875 C 72.328125 91.882812 70.929688 92.882812 68.574219 91.867188 C 69.445312 92.859375 70.144531 94.3125 69.644531 95 C 68 97.273438 67.929688 98.523438 68.492188 99.746094 C 69.019531 100.894531 74.875 101.175781 75.898438 98.90625 C 76.402344 97.792969 76.285156 96.769531 73.441406 94.714844 C 72.453125 94 72.820312 91.988281 73.761719 90.96875 Z M 73.761719 90.96875 " fill-opacity="1" fill-rule="evenodd"/><path fill="#dcb37d" d="M 71.171875 62.605469 C 72.019531 61.96875 72.820312 61.335938 73.644531 60.679688 C 74.285156 60.957031 74.898438 61.265625 75.53125 61.652344 C 74.824219 62.25 74.109375 62.800781 73.390625 63.363281 C 72.730469 63.019531 71.914062 62.761719 71.171875 62.605469 Z M 75.609375 64.925781 C 76.265625 64.40625 76.871094 63.894531 77.503906 63.355469 C 77.949219 63.859375 78.363281 64.421875 78.6875 64.957031 C 78.066406 65.507812 77.441406 65.996094 76.796875 66.5 C 76.441406 65.886719 76.015625 65.296875 75.609375 64.925781 Z M 77.730469 68.757812 C 78.460938 68.152344 79.058594 67.679688 79.707031 67.132812 C 79.953125 67.8125 80.113281 68.429688 80.261719 69.070312 C 79.566406 69.648438 78.882812 70.199219 78.1875 70.75 C 78.054688 70.035156 77.945312 69.378906 77.730469 68.757812 Z M 78.492188 73.753906 C 79.265625 73.15625 79.960938 72.550781 80.722656 71.9375 C 80.800781 72.695312 80.828125 73.484375 80.871094 74.203125 C 80.066406 74.847656 79.339844 75.484375 78.527344 76.113281 C 78.582031 75.175781 78.527344 74.265625 78.492188 73.753906 Z M 78.492188 73.753906 " fill-opacity="1" fill-rule="nonzero"/><path fill="#dcb37d" d="M 77.417969 76.78125 C 79.570312 78.105469 81.101562 77.664062 81.972656 76.835938 C 81.972656 76.835938 81.089844 79.171875 81.761719 80.398438 C 83.125 82.90625 85.519531 82.304688 86.460938 80.910156 L 86.460938 80.917969 L 86.347656 81.363281 L 86.597656 80.9375 L 86.597656 81.363281 L 86.71875 80.960938 L 86.859375 81.40625 L 86.886719 80.960938 L 87.023438 81.425781 L 87.085938 80.949219 L 87.207031 81.363281 L 87.300781 80.953125 C 87.425781 81.207031 87.507812 81.457031 87.550781 81.710938 L 87.214844 83.492188 C 86.558594 84.585938 85.238281 86.238281 83.625 85.980469 C 82.378906 85.777344 79.328125 86.40625 77.769531 85.09375 C 77.339844 84.738281 77.023438 84.226562 76.777344 83.632812 C 76.265625 82.417969 77.339844 81.011719 77.863281 79.804688 C 78.421875 78.515625 77.890625 77.894531 77.414062 76.78125 Z M 77.417969 76.78125 " fill-opacity="1" fill-rule="evenodd"/><path fill="#dcb37d" d="M 76.773438 37.183594 C 76.773438 37.183594 69.644531 36.210938 66.078125 35.722656 C 65.710938 35.671875 65.203125 38.265625 65.058594 38.574219 C 60.539062 48.179688 62.953125 51.453125 62.285156 58.992188 C 62.257812 59.363281 62.527344 60.105469 63.257812 60.335938 C 66.714844 61.417969 69.128906 62.957031 76.367188 62.191406 C 77.183594 62.105469 77.230469 61.441406 77.300781 61.109375 C 79.160156 52.472656 79.277344 48.980469 77.503906 39.21875 C 77.425781 38.785156 76.84375 37.191406 76.773438 37.183594 Z M 76.773438 37.183594 " fill-opacity="1" fill-rule="nonzero"/><path fill="#ffffff" d="M 49.914062 21.132812 C 48.816406 21.117188 48.054688 21.636719 47.324219 22.203125 C 47.078125 22.394531 46.710938 22.183594 46.59375 21.902344 L 46.449219 21.550781 C 46.335938 21.261719 46.5 20.996094 46.757812 20.816406 C 47.5625 20.25 48.390625 19.769531 49.347656 19.742188 C 49.65625 19.734375 49.964844 19.761719 50.078125 20.050781 L 50.222656 20.398438 C 50.339844 20.6875 50.226562 21.132812 49.914062 21.132812 Z M 49.914062 21.132812 " fill-opacity="1" fill-rule="nonzero"/><path fill="#000010" d="M 62.351562 53.730469 C 62.175781 53.660156 62.03125 50.933594 62.21875 50.273438 C 63.4375 52.125 73.570312 53.953125 78.644531 53.101562 C 78.644531 53.101562 78.625 54.164062 78.320312 55.796875 C 72.96875 56.898438 67.375 55.8125 62.351562 53.730469 Z M 62.351562 53.730469 " fill-opacity="1" fill-rule="evenodd"/><path fill="#ffffff" d="M 76.191406 36.144531 C 78.382812 30.214844 63.789062 32.765625 64.96875 35.730469 C 67.695312 39.804688 75.546875 38.394531 76.191406 36.144531 Z M 76.191406 36.144531 " fill-opacity="1" fill-rule="evenodd"/><path fill="#ffccaa" d="M 84.921875 27.144531 C 83.792969 28.304688 83.472656 29.8125 84.199219 30.523438 C 84.929688 31.230469 86.5 32.167969 87.558594 29.714844 C 88.15625 28.332031 89.855469 25.378906 89.589844 24.859375 C 89.128906 23.953125 86.042969 25.988281 84.921875 27.144531 Z M 84.921875 27.144531 " fill-opacity="1" fill-rule="nonzero"/><path fill="#5c3718" d="M 56.972656 24.816406 C 56.957031 24.820312 56.941406 24.820312 56.929688 24.824219 C 56.59375 24.945312 56.457031 25.550781 56.128906 25.6875 C 52.886719 26.285156 49.367188 28.023438 47.460938 30.820312 C 47.023438 31.410156 47.886719 32.105469 48.28125 31.484375 C 48.960938 30.488281 49.871094 29.554688 50.894531 28.757812 C 50.238281 29.570312 49.679688 30.496094 49.289062 31.605469 C 49.046875 32.28125 50 32.691406 50.238281 32.015625 C 50.460938 31.398438 50.742188 30.859375 51.058594 30.347656 C 50.617188 31.246094 50.28125 32.425781 50.023438 34.097656 C 49.90625 34.820312 50.921875 35.019531 51.027344 34.296875 C 51.4375 31.621094 51.972656 30.515625 52.789062 29.675781 C 52.828125 29.636719 52.878906 29.601562 52.917969 29.5625 C 52.5625 30.589844 52.390625 31.6875 52.238281 32.671875 C 52.148438 33.242188 52.835938 33.566406 53.152344 33.105469 C 52.886719 34.40625 52.71875 35.628906 52.699219 36.480469 C 52.644531 37.25 53.738281 37.296875 53.714844 36.527344 C 53.738281 35.351562 54.101562 33.066406 54.722656 31.0625 C 54.867188 30.601562 55.027344 30.160156 55.195312 29.742188 C 55.027344 31.230469 55.222656 32.742188 55.921875 34.207031 C 56.234375 34.871094 57.144531 34.378906 56.828125 33.722656 C 55.96875 31.925781 55.984375 30.082031 56.566406 28.25 C 62.765625 41.042969 81.726562 37.039062 85.285156 29.875 C 85.292969 29.878906 85.300781 29.882812 85.304688 29.886719 C 85.972656 32.171875 85.925781 34.359375 84.695312 36.28125 C 84.28125 36.882812 85.164062 37.550781 85.539062 36.914062 C 86.390625 35.578125 86.75 34.113281 86.742188 32.605469 C 86.863281 33.050781 86.976562 33.515625 87.070312 34 C 87.46875 36.082031 87.582031 38.414062 87.476562 39.582031 C 87.394531 40.324219 88.441406 40.453125 88.488281 39.707031 C 88.5625 38.859375 88.53125 37.625 88.40625 36.292969 C 88.671875 36.796875 89.378906 36.585938 89.359375 36.011719 C 89.3125 35.007812 89.261719 33.890625 89.023438 32.816406 C 89.054688 32.859375 89.101562 32.902344 89.132812 32.945312 C 89.855469 33.914062 90.257812 35.097656 90.378906 37.820312 C 90.410156 38.558594 91.433594 38.523438 91.394531 37.789062 C 91.320312 36.085938 91.117188 34.863281 90.777344 33.898438 C 91.035156 34.457031 91.257812 35.042969 91.40625 35.691406 C 91.550781 36.441406 92.597656 36.179688 92.394531 35.445312 C 92.125 34.28125 91.671875 33.265625 91.109375 32.351562 C 92.039062 33.316406 92.839844 34.390625 93.40625 35.492188 C 93.738281 36.132812 94.621094 35.617188 94.296875 34.972656 C 92.703125 31.886719 89.660156 29.140625 86.511719 28.003906 C 86.230469 27.832031 85.953125 27.667969 85.664062 27.507812 L 85.648438 24 L 85.011719 23.363281 C 79.933594 18.828125 58.140625 23.328125 56.972656 24.816406 Z M 54.578125 28.554688 C 54.265625 29.207031 53.992188 29.933594 53.757812 30.695312 C 53.613281 31.160156 53.488281 31.632812 53.371094 32.105469 C 53.597656 30.789062 53.914062 29.492188 54.578125 28.554688 Z M 87.484375 31.539062 C 88.039062 32.574219 88.210938 33.90625 88.292969 35.246094 C 88.230469 34.765625 88.15625 34.277344 88.066406 33.800781 C 87.914062 33.003906 87.722656 32.234375 87.484375 31.539062 Z M 87.484375 31.539062 " fill-opacity="1" fill-rule="evenodd"/><path fill="#dcb37d" d="M 79.203125 11.320312 C 88.328125 19.050781 89.855469 13.792969 91.226562 7.453125 C 92.824219 12.210938 95.546875 20.351562 84.871094 28.195312 C 74.011719 35.359375 58.535156 28.621094 56.894531 24.886719 C 56.050781 13.933594 72.71875 5.832031 79.203125 11.320312 Z M 79.203125 11.320312 " fill-opacity="1" fill-rule="evenodd"/><path fill="#ffffff" d="M 61.855469 26.601562 C 59.253906 25.917969 57.304688 24.878906 56.726562 23.363281 C 49.445312 35.195312 86.984375 39.0625 86.300781 27.050781 C 85.617188 27.503906 84.925781 27.921875 84.238281 28.273438 C 83.480469 28.65625 82.730469 28.984375 81.976562 29.257812 C 81.222656 29.53125 80.476562 29.753906 79.738281 29.925781 C 78.996094 30.097656 78.257812 30.230469 77.535156 30.316406 C 76.808594 30.402344 76.09375 30.449219 75.386719 30.460938 C 74.6875 30.472656 73.996094 30.445312 73.320312 30.394531 C 71.976562 30.292969 70.691406 30.074219 69.5 29.785156 C 68.3125 29.5 67.210938 29.144531 66.230469 28.773438 C 65.25 28.398438 64.382812 28.003906 63.664062 27.644531 C 62.941406 27.277344 62.367188 26.941406 61.960938 26.679688 C 61.898438 26.640625 61.910156 26.636719 61.855469 26.601562 Z M 61.855469 26.601562 " fill-opacity="1" fill-rule="evenodd"/><path fill="#ffffff" d="M 91.664062 10.089844 L 91.179688 9.339844 L 91.324219 10.113281 L 90.921875 9.316406 L 90.988281 10.105469 L 90.664062 9.273438 L 90.652344 10.0625 L 90.421875 9.203125 L 90.320312 9.984375 L 90.179688 9.101562 L 90 9.871094 L 89.953125 8.976562 L 89.691406 9.726562 L 89.738281 8.832031 L 89.398438 9.546875 L 89.539062 8.664062 L 89.128906 9.34375 L 89.363281 8.480469 L 88.882812 9.109375 L 89.207031 8.273438 L 88.660156 8.851562 L 89.070312 8.054688 L 88.46875 8.570312 L 88.957031 7.820312 L 88.308594 8.269531 L 88.871094 7.578125 L 88.175781 7.957031 L 88.808594 7.328125 L 88.078125 7.632812 L 88.773438 7.070312 L 88.015625 7.296875 L 88.765625 6.808594 L 87.992188 6.957031 L 88.785156 6.550781 L 87.996094 6.621094 L 88.832031 6.300781 L 88.042969 6.28125 L 88.90625 6.050781 L 88.121094 5.949219 L 89.003906 5.8125 L 88.234375 5.628906 L 89.128906 5.582031 L 88.378906 5.324219 L 89.273438 5.371094 L 88.558594 5.03125 L 89.441406 5.171875 L 88.761719 4.761719 L 89.625 4.996094 L 88.996094 4.515625 L 89.832031 4.835938 L 89.253906 4.292969 L 90.050781 4.699219 L 89.535156 4.101562 L 90.285156 4.589844 L 89.835938 3.9375 L 90.527344 4.5 L 90.148438 3.804688 L 90.777344 4.441406 L 90.472656 3.710938 L 91.035156 4.40625 L 90.808594 3.644531 L 91.296875 4.398438 L 91.148438 3.621094 L 91.550781 4.417969 L 91.484375 3.628906 L 91.804688 4.464844 L 91.824219 3.671875 L 92.054688 4.535156 L 92.15625 3.75 L 92.292969 4.632812 L 92.476562 3.863281 L 92.523438 4.757812 L 92.78125 4.011719 L 92.734375 4.902344 L 93.074219 4.1875 L 92.929688 5.070312 L 93.339844 4.394531 L 93.109375 5.253906 L 93.589844 4.628906 L 93.265625 5.464844 L 93.8125 4.886719 L 93.40625 5.683594 L 94.003906 5.167969 L 93.515625 5.914062 L 94.167969 5.464844 L 93.601562 6.15625 L 94.300781 5.777344 L 93.664062 6.410156 L 94.394531 6.105469 L 93.699219 6.667969 L 94.460938 6.441406 L 93.707031 6.925781 L 94.484375 6.78125 L 93.6875 7.183594 L 94.476562 7.117188 L 93.640625 7.4375 L 94.433594 7.453125 L 93.570312 7.683594 L 94.355469 7.785156 L 93.472656 7.921875 L 94.238281 8.105469 L 93.347656 8.152344 L 94.09375 8.410156 L 93.199219 8.367188 L 93.914062 8.703125 L 93.035156 8.566406 L 93.710938 8.972656 L 92.847656 8.742188 L 93.476562 9.21875 L 92.640625 8.898438 L 93.21875 9.445312 L 92.421875 9.035156 L 92.9375 9.632812 L 92.191406 9.144531 L 92.640625 9.796875 L 91.945312 9.234375 L 92.324219 9.929688 L 91.695312 9.292969 L 92 10.023438 L 91.4375 9.332031 Z M 91.664062 10.089844 " fill-opacity="1" fill-rule="nonzero"/></svg>