<svg width="55" height="55" viewBox="0 0 55 55" fill="none" xmlns="http://www.w3.org/2000/svg">
<g clip-path="url(#clip0_32_419)">
<mask id="mask0_32_419" style="mask-type:luminance" maskUnits="userSpaceOnUse" x="6" y="25" width="43" height="29">
<path d="M6.11108 25.5903H48.8889V53.0515H6.11108V25.5903Z" fill="white"/>
</mask>
<g mask="url(#mask0_32_419)">
<path d="M47.4327 52.9396H7.54635C6.94359 52.9396 6.45422 52.4517 6.45422 51.849V26.9912C6.45422 26.3885 6.94359 25.8976 7.54635 25.8976C8.1491 25.8976 8.63698 26.3885 8.63698 26.9912V50.7568H46.3406V26.9912C46.3406 26.3885 46.8299 25.8976 47.4327 25.8976C48.0354 25.8976 48.5233 26.3885 48.5233 26.9912V51.849C48.5233 52.4517 48.0354 52.9396 47.4327 52.9396Z" fill="white"/>
</g>
<mask id="mask1_32_419" style="mask-type:luminance" maskUnits="userSpaceOnUse" x="0" y="2" width="55" height="23">
<path d="M0 2.06189H55V24.8264H0V2.06189Z" fill="white"/>
</mask>
<g mask="url(#mask1_32_419)">
<path d="M53.6886 24.6637C53.4529 24.6637 53.2171 24.5906 53.0187 24.434L27.4896 4.61763L1.95899 24.434C1.48156 24.804 0.796749 24.7175 0.426741 24.2415C0.058224 23.7641 0.144758 23.0793 0.619205 22.7093L26.8197 2.37371C27.2151 2.06785 27.7641 2.06785 28.1595 2.37371L54.3585 22.7093C54.8344 23.0793 54.921 23.7641 54.551 24.2415C54.3376 24.519 54.0124 24.6637 53.6886 24.6637Z" fill="white"/>
</g>
</g>
<defs>
<clipPath id="clip0_32_419">
<rect width="55" height="55" fill="white"/>
</clipPath>
</defs>
</svg>
