<svg width="192" height="119" viewBox="0 0 192 119" fill="none" xmlns="http://www.w3.org/2000/svg">
<path d="M9.64631 110.476C11.0463 110.476 12.3463 110.376 13.5463 110.276C14.4463 110.076 15.2463 109.476 15.0463 108.576C14.6463 105.176 13.7463 100.276 13.7463 95.6756C13.7463 93.7756 14.8463 92.4756 16.6463 92.4756C23.4463 92.4756 29.2463 100.076 29.3463 108.576C29.3463 109.576 30.0463 109.976 30.9463 110.176C32.2463 110.376 34.0463 110.376 35.0463 110.376C35.8463 110.376 37.3463 110.276 38.5463 110.176C39.4463 109.976 40.1463 109.476 40.1463 108.576C40.1463 98.6756 36.6463 92.7756 28.0463 90.6756C27.0463 90.3756 27.0463 89.4756 28.1463 89.2756C35.6463 87.6756 39.6463 82.7756 39.6463 77.5756C39.6463 70.6756 33.0463 67.5756 21.2463 67.5756C17.2463 67.5756 7.74631 67.7756 6.64631 67.8756C5.84631 67.9756 5.24631 68.5756 5.24631 69.2756C4.94631 76.8756 4.04631 99.6756 4.04631 108.676C4.04631 109.476 4.64631 110.076 5.54631 110.276C6.14631 110.376 7.84631 110.476 9.64631 110.476ZM16.6463 85.9756C14.9463 86.3756 13.7463 85.8756 13.5463 84.0756C13.3463 82.0756 13.4463 79.1756 13.5463 77.3756C13.6463 76.1756 14.4463 75.3756 15.8463 75.1756C17.3463 75.0756 18.7463 75.0756 20.6463 75.0756C27.3463 75.0756 30.5463 76.3756 30.5463 79.4756C30.5463 82.7756 25.5463 85.1756 16.6463 85.9756Z" fill="white"/>
<path d="M59.5541 110.676C69.1541 110.676 76.2541 105.176 76.2541 94.0756C76.2541 83.2756 69.2541 76.9756 59.5541 76.9756C49.8541 76.9756 42.7541 83.2756 42.7541 94.0756C42.7541 105.176 49.9541 110.676 59.5541 110.676ZM59.5541 103.576C54.7541 103.576 51.3541 100.076 51.3541 93.7756C51.3541 87.7756 54.6541 84.0756 59.5541 84.0756C64.3541 84.0756 67.7541 87.7756 67.7541 93.7756C67.7541 100.076 64.2541 103.576 59.5541 103.576Z" fill="white"/>
<path d="M91.6547 110.676C95.9547 110.676 99.6547 108.876 101.955 105.576C102.555 104.476 103.255 104.676 103.155 105.976C103.055 106.976 102.955 107.676 102.855 108.576C102.655 109.576 103.355 110.176 104.155 110.276C105.055 110.376 106.655 110.476 107.655 110.476C108.355 110.476 110.055 110.376 111.055 110.276C111.855 110.076 112.355 109.576 112.355 108.576C112.355 93.8756 112.255 76.7756 111.355 68.4756C111.255 67.6756 110.855 67.1756 110.055 66.9756C109.155 66.6756 107.755 66.6756 106.455 66.6756C105.155 66.6756 103.655 66.7756 102.855 66.8756C102.155 67.0756 101.455 67.6756 101.555 68.5756C102.155 72.1756 102.955 77.0756 103.055 81.9756C103.155 83.1756 102.355 83.3756 101.755 82.3756C99.5547 78.7756 95.8547 77.0756 91.6547 77.0756C84.0547 77.0756 78.4547 83.2756 78.4547 94.0756C78.4547 104.976 84.0547 110.676 91.6547 110.676ZM95.1547 103.476C90.5547 103.476 87.0547 99.8756 87.0547 93.7756C87.0547 87.7756 90.3547 84.2756 95.1547 84.2756C99.7547 84.2756 103.255 87.6756 103.255 93.6756C103.255 99.8756 99.6547 103.476 95.1547 103.476Z" fill="white"/>
<path d="M131.932 110.676C141.532 110.676 148.632 105.176 148.632 94.0756C148.632 83.2756 141.632 76.9756 131.932 76.9756C122.232 76.9756 115.132 83.2756 115.132 94.0756C115.132 105.176 122.332 110.676 131.932 110.676ZM131.932 103.576C127.132 103.576 123.732 100.076 123.732 93.7756C123.732 87.7756 127.032 84.0756 131.932 84.0756C136.732 84.0756 140.132 87.7756 140.132 93.7756C140.132 100.076 136.632 103.576 131.932 103.576Z" fill="white"/>
<path d="M156.433 110.476C157.333 110.476 158.833 110.376 159.833 110.276C160.633 110.076 161.233 109.476 161.133 108.576C160.333 97.1756 160.833 78.8756 162.133 68.6756C162.233 67.7756 161.633 67.0756 160.833 66.9756C160.033 66.7756 158.233 66.7756 157.133 66.7756C156.133 66.7756 154.933 66.8756 154.033 66.9756C153.233 67.0756 152.633 67.6756 152.533 68.4756C151.833 77.4756 151.533 94.6756 151.533 108.576C151.533 109.576 152.033 110.076 152.833 110.276C153.733 110.376 155.533 110.476 156.433 110.476Z" fill="white"/>
<path d="M174.71 110.476C175.81 110.476 177.41 110.376 178.41 110.276C179.11 110.076 179.81 109.576 179.71 108.576C179.31 103.176 178.41 94.3756 178.71 84.4756C178.71 83.6756 179.21 83.0756 179.91 83.0756C181.91 83.0756 185.21 83.3756 187.11 83.5756C188.01 83.6756 188.71 82.8756 188.71 81.9756C188.81 80.9756 188.81 79.9756 188.71 78.9756C188.71 77.9756 187.91 77.2756 187.01 77.3756C185.41 77.5756 184.11 77.6756 182.51 77.6756C180.61 77.6756 178.91 76.9756 178.81 75.7756C178.71 74.1756 180.11 72.9756 182.11 72.9756C183.41 72.9756 185.21 73.6756 186.11 74.5756C187.11 75.6756 188.51 75.1756 188.51 73.4756C188.51 72.0756 188.51 70.2756 188.41 68.8756C188.41 68.1756 188.01 67.4756 187.41 67.2756C185.51 66.3756 182.81 65.8756 180.91 65.8756C174.51 65.8756 168.91 69.0756 170.11 76.4756C170.21 77.1756 169.61 77.4756 169.01 77.4756H166.01C165.11 77.4756 164.41 78.2756 164.41 79.0756V81.4756C164.41 82.3756 165.11 83.0756 166.01 83.0756H168.71C169.41 83.0756 169.81 83.5756 169.81 84.3756C169.61 91.7756 169.41 99.3756 169.41 108.376C169.41 109.376 170.01 109.976 170.81 110.076C171.81 110.376 173.61 110.476 174.71 110.476Z" fill="white"/>
<mask id="mask0_65_432" style="mask-type:luminance" maskUnits="userSpaceOnUse" x="12" y="2" width="46" height="84">
<path d="M57.4 2.3H12.8V85.3H57.4V2.3Z" fill="white"/>
</mask>
<g mask="url(#mask0_65_432)">
<path d="M55.8 81.6C55.8 79.8 55.2 77.6 55 76.8C53.8 71.9 52.6 66.9 51.4 62C50.7 59.3 50.1 56.5 50.2 53.7C50.4 50.2 51.8 47 53 43.7C54.3 40.1 56.2 36.4 56.6 32.5C57 28.5 55 24.6 51.9 29.7C50.1 32.7 51.6 48 44.4 45.2C39 43 42 32.5 43.6 29.1C45.2 25.8 47.1 22.6 48.1 19C49.1 15.6 49.3 8.5 45.6 6.5C38.7 2.7 41.2 17.4 40.8 20.5C40.3 24.3 38.6 32.1 33.3 28.2C28.8 24.9 27.4 17.2 25.3 12.4C24.1 9.6 20.6 3.2 17.3 2.7C15.2 2.4 13.3 4.5 13.1 6.6C12.9 8.8 13.9 10.8 14.9 12.7C17.6 17.6 20.9 22 24.8 26C28.7 30 31.2 33.5 32.6 38.9C32.8 39.5 32.9 40.1 32.5 40.6C32.2 41.1 31.5 41.2 30.9 41.2C28.5 41.2 26.2 40.1 23.8 40C21.4 39.9 18.5 41.6 18.8 44C19 45.5 20.4 46.6 21.8 47C23.3 47.4 24.8 47.3 26.3 47.3C36.9 47.4 45.5 59.2 47.5 68.6C48.2 72 49 81.9 52.6 83.7C55.1 84.8 55.8 83.4 55.8 81.6Z" fill="white"/>
</g>
<mask id="mask1_65_432" style="mask-type:luminance" maskUnits="userSpaceOnUse" x="134" y="2" width="46" height="84">
<path d="M179.9 2.3H134.7V85.3H179.9V2.3Z" fill="white"/>
</mask>
<g mask="url(#mask1_65_432)">
<path d="M136.9 81.6C136.9 79.8 137.5 77.6 137.7 76.8C138.9 71.9 140.1 66.9 141.3 62C142 59.3 142.6 56.5 142.5 53.7C142.3 50.2 140.9 47 139.7 43.7C138.4 40.1 136.5 36.4 136.1 32.5C135.7 28.5 137.7 24.6 140.8 29.7C142.6 32.7 141.1 48 148.3 45.2C153.7 43.1 150.7 32.6 149.1 29.2C147.5 25.9 145.6 22.7 144.6 19.1C143.6 15.7 143.4 8.6 147.1 6.6C154 2.8 151.5 17.5 151.9 20.6C152.4 24.4 154.1 32.2 159.4 28.3C163.9 25 165.3 17.3 167.4 12.5C168.7 9.7 172.1 3.3 175.5 2.8C177.6 2.5 179.5 4.6 179.7 6.7C179.9 8.9 178.9 10.9 177.9 12.8C175.2 17.7 171.9 22.1 168 26.1C164.1 30.1 161.6 33.6 160.2 39C160.1 39.6 159.9 40.2 160.3 40.7C160.6 41.2 161.3 41.3 161.9 41.3C164.3 41.3 166.6 40.2 169 40.1C171.4 40 174.3 41.7 174 44.1C173.8 45.6 172.4 46.7 171 47.1C169.5 47.5 168 47.4 166.5 47.4C155.9 47.5 147.3 59.3 145.3 68.7C144.6 72.1 143.7 82 140.2 83.8C137.5 84.8 136.9 83.4 136.9 81.6Z" fill="white"/>
</g>
</svg>
