<svg width="110" height="153" viewBox="0 0 110 153" fill="none" xmlns="http://www.w3.org/2000/svg">
<g clip-path="url(#clip0_151_354)">
<path d="M62.5131 26.4629C63.3723 27.9404 63.31 29.584 62.3762 30.1235C61.4382 30.6672 59.583 31.2192 59.1264 28.4219C58.8691 26.8406 57.8896 23.3584 58.2963 22.8894C59.0102 22.0801 61.654 24.9771 62.5131 26.4629Z" fill="#FFCCAA"/>
<mask id="mask0_151_354" style="mask-type:luminance" maskUnits="userSpaceOnUse" x="43" y="0" width="20" height="21">
<path d="M43.8572 0H62.6875V20.1875H43.8572V0Z" fill="white"/>
</mask>
<g mask="url(#mask0_151_354)">
<path d="M49.4934 19.1292L54.4448 13.8872L60.7202 15.7466L57.7734 9.69531L61.9446 3.96777L55.1711 5.47022L51.4731 0.0705566L50.2363 7.04736L43.7783 9.43799L49.7839 12.252L49.4934 19.1292Z" fill="white"/>
</g>
<mask id="mask1_151_354" style="mask-type:luminance" maskUnits="userSpaceOnUse" x="61" y="9" width="49" height="144">
<path d="M61.625 9.5625H109.139V153H61.625V9.5625Z" fill="white"/>
</mask>
<g mask="url(#mask1_151_354)">
<path fill-rule="evenodd" clip-rule="evenodd" d="M88.81 9.79077C88.8972 9.78662 88.9885 9.79077 89.0756 9.80322C89.777 9.91528 90.2253 10.5959 90.08 11.3223L87.4819 25.3713L103.917 27.8159L106.516 13.7585C106.644 13.0198 107.337 12.501 108.051 12.6213C108.748 12.7334 109.201 13.4141 109.056 14.1362L83.7258 151.153C83.4269 152.934 80.8371 152.548 81.1899 150.775L82.9372 141.317L66.5017 138.88L64.7502 148.335C64.4514 150.12 61.8574 149.734 62.2101 147.961L72.6608 91.4497C70.6271 80.3599 69.2783 71.8931 69.2575 65.2441C68.6433 65.0034 68.0456 64.7378 67.7468 64.0654L69.2575 64.4016C69.2741 63.2271 69.3364 62.1106 69.4443 61.0439L72.3454 61.3552C72.2707 62.0359 72.225 62.7456 72.2001 63.4927C72.3039 63.4387 72.4118 63.3848 72.5322 63.335C74.4912 63.4221 76.2011 63.7334 77.687 64.2563L87.5441 10.9404C87.652 10.2971 88.1999 9.81567 88.81 9.79077ZM67.7468 64.0654L67.6721 64.0488H67.7385C67.7385 64.053 67.7468 64.0613 67.7468 64.0654ZM87.1208 27.3428L84.5392 41.3088L100.971 43.7451L103.552 29.7832L87.1208 27.3428ZM84.174 43.2761L81.5925 57.238L98.028 59.6826L100.61 45.7166L84.174 43.2761ZM81.2272 59.2095L80.0859 65.3936C80.9948 65.958 81.7917 66.6428 82.4848 67.448C84.0412 69.2576 84.9667 71.5361 85.4648 74.1841L95.0812 75.616L97.6669 61.6499L81.2272 59.2095ZM72.1877 66.1074C72.2956 70.6853 73.0219 76.3174 74.1757 83.2485L77.1806 67.0039C75.8276 66.4934 74.184 66.1821 72.1877 66.1074ZM79.5505 68.303L78.6457 73.1755L82.7712 73.7856C82.3271 71.9844 81.6464 70.4985 80.6711 69.3613C80.3432 68.9795 79.9655 68.6267 79.5505 68.303ZM78.2805 75.1428L75.7031 89.1089L92.1345 91.5493L93.1513 86.0542V86.05L93.0351 85.7388L93.0434 86.2908L92.9147 85.8218L92.8649 86.3696V86.519C92.4706 86.6643 91.7941 86.6228 91.7319 86.6228L91.5617 86.3364L91.79 85.9214L91.3915 86.2451L91.6613 85.855L91.2297 86.1331L91.5327 85.7803L91.0803 86.0085L91.4164 85.689L90.9392 85.8633L91.3044 85.5894L90.8188 85.7014L91.2048 85.4731L90.7109 85.5312L91.1135 85.3403L90.6196 85.3445L91.0388 85.2117L90.5449 85.1536L90.9765 85.0664L90.4868 84.9543L90.9267 84.9128L90.4536 84.7427L90.8935 84.7593L90.437 84.5393L90.8727 84.6016L90.4411 84.3276L90.8686 84.4438L90.466 84.1201L90.881 84.282L90.5075 83.9167L90.9059 84.1284L90.5698 83.7175L90.9475 83.9707L90.6528 83.5308L91.0014 83.8254L90.7441 83.3523L91.0678 83.6843L90.8603 83.1821L91.1508 83.5515L90.9931 83.0286L91.2421 83.4353L91.1342 82.8916L91.3459 83.3232L91.2878 82.7712L91.4579 83.2278V82.6716L91.5866 83.1406L91.6323 82.5928L91.7153 83.0742L91.8149 82.5347L91.8522 83.0203L92.0017 82.4973L91.9892 82.9829L92.1884 82.4807L92.1303 82.9622L92.3752 82.4849L92.2797 82.958L92.5661 82.5098L92.4208 82.9705L92.7487 82.5596L92.562 82.9995L92.9272 82.6301L92.7031 83.0452L93.1015 82.7173L92.8317 83.1033L93.2634 82.8293L92.9604 83.1821L93.4128 82.9539L93.0766 83.2734L93.5539 83.0991L93.1887 83.3772C93.3505 83.3398 93.4958 83.2983 93.6577 83.2651L93.2883 83.4934L93.6369 83.4478L94.716 77.5874L85.7595 76.251C86.0168 78.7163 85.9919 81.4431 85.8093 84.3816L83.3024 84.1699C83.5017 80.9949 83.4767 78.2224 83.1613 75.8691L78.2805 75.1428ZM93.6245 83.5059L93.3796 83.6179H93.6037L93.6245 83.51V83.5059ZM93.5871 83.7134L93.4543 83.759L93.5788 83.7715C93.5788 83.7715 93.5788 83.7715 93.5788 83.7673L93.5871 83.7134ZM93.5539 83.8918L93.5165 83.9001L93.5497 83.9126C93.5497 83.9126 93.5497 83.9126 93.5497 83.9084L93.5539 83.8918ZM93.1472 85.6433L93.1762 85.9297L93.2053 85.7761L93.1472 85.6433ZM75.5578 91.1094C75.9894 93.4709 76.4418 95.9114 76.9357 98.5303L74.072 99.0532C74.0388 98.8582 74.0014 98.6797 73.9682 98.4846L72.7563 105.038L89.196 107.483L89.7687 104.374C89.8393 103.793 89.9389 103.179 90.1215 102.461L91.7734 93.5166L75.5578 91.1094ZM72.3911 107.01L69.8095 120.976L86.2492 123.416L88.8308 109.454L72.3911 107.01ZM69.4443 122.943L66.8627 136.905L83.3024 139.349L85.884 125.387L69.4443 122.943Z" fill="white"/>
</g>
<path fill-rule="evenodd" clip-rule="evenodd" d="M52.8469 21.8394C54.1086 26.1765 55.5737 30.2397 58.0847 33.4895C60.5957 36.7393 64.1277 39.2502 69.8677 40.5493L69.2534 43.2139C62.9863 41.7986 58.7737 38.8684 55.9099 35.1621C53.0461 31.4558 51.5022 27.0481 50.2156 22.6113L52.8469 21.8394Z" fill="#DCB37D"/>
<path fill-rule="evenodd" clip-rule="evenodd" d="M99.4351 31.4807L102.021 33.1492C98.8457 38.2541 95.1602 42.0103 90.3955 43.1724C85.6309 44.3386 80.0071 42.6619 73.7856 37.6772L75.4749 35.656C81.2024 40.2463 85.5354 41.3794 89.2832 40.4663C93.0352 39.5491 96.4177 36.3367 99.4351 31.4807Z" fill="#DCB37D"/>
<path d="M50.3318 15.3232C51.5687 15.1821 52.7391 16.7095 52.9466 18.7432C53.1583 20.7852 52.3323 22.5781 51.0997 22.7649C49.8587 22.96 48.6717 21.4783 48.4227 19.3533C48.2317 17.22 49.0867 15.4644 50.3318 15.3232Z" fill="#FFCCAA"/>
<path d="M103.669 26.6455C104.843 27.4175 104.93 29.3682 103.864 31.0242C102.797 32.6802 100.975 33.4272 99.7754 32.7051C98.576 31.9746 98.4473 30.0447 99.5306 28.2932C100.672 26.5791 102.498 25.8777 103.669 26.6497V26.6455Z" fill="#FFCCAA"/>
<path d="M101.664 33.834C100.651 32.9998 99.6093 32.8379 98.5634 32.7383C98.2107 32.7051 97.999 32.2693 98.0778 31.9539L98.1733 31.572C98.2522 31.2607 98.58 31.1736 98.937 31.2234C100.049 31.3811 101.137 31.6177 102.041 32.3149C102.34 32.5432 102.606 32.7881 102.523 33.0994L102.432 33.4854C102.353 33.7966 101.954 34.0664 101.664 33.834Z" fill="white"/>
<path d="M72.196 66.7383C72.2209 67.3982 72.2375 67.9543 72.2874 68.5728C71.3203 68.7512 70.374 68.9048 69.4111 69.05C69.3613 68.498 69.3364 67.8008 69.3157 67.2322C70.291 67.0786 71.2332 66.9167 72.196 66.7383ZM72.47 70.926C72.5032 71.5527 72.5903 72.1255 72.6567 72.7148C71.6897 72.856 70.7351 72.968 69.7639 73.0842C69.7224 72.773 69.6519 71.9014 69.5896 71.366C70.5649 71.229 71.5112 71.0879 72.47 70.926ZM72.9265 75.0142C72.9971 75.6201 73.0552 76.0974 73.1465 76.6536C72.1711 76.8362 71.2332 76.9773 70.2744 77.1309C70.1997 76.5623 70.1208 76.0144 70.0586 75.5454C71.0339 75.3711 71.9802 75.2134 72.9265 75.0142ZM73.4785 78.9612C73.5615 79.5049 73.6611 80.1233 73.7483 80.6919C72.7937 80.8745 71.8391 81.0281 70.8804 81.1899C70.7891 80.6172 70.6978 80.0071 70.6147 79.4551C71.5776 79.2974 72.5239 79.1397 73.4785 78.9612ZM74.1011 82.8418C74.209 83.4976 74.3044 84.062 74.4165 84.7385C73.4744 84.9211 72.5239 85.0789 71.5569 85.2366C71.4448 84.5808 71.3494 84.0122 71.2456 83.3772C72.2168 83.1987 73.1672 83.0327 74.1011 82.8418ZM74.8523 87.262C74.9312 87.7102 75.0349 88.2705 75.1138 88.7271C74.1592 88.9097 73.217 89.0425 72.2625 89.2043C72.1794 88.7437 72.0715 88.1958 71.9927 87.7476C72.9514 87.594 73.9019 87.457 74.8523 87.262ZM75.5288 90.9641C75.6326 91.5659 75.7446 92.1968 75.8608 92.8152C74.9146 92.9729 73.9558 93.0684 72.9971 93.2053C72.8892 92.6326 72.7813 92.0432 72.6816 91.4829C73.6736 91.3086 74.6074 91.1384 75.5288 90.9641ZM76.2883 95.1353C76.4087 95.7869 76.5166 96.3389 76.6411 97.0112C75.6907 97.1482 74.7278 97.2395 73.7607 97.3599C73.6404 96.7124 73.5449 96.1687 73.4287 95.542C74.3875 95.4009 75.3379 95.2888 76.2883 95.1353Z" fill="#DCB37D"/>
<path fill-rule="evenodd" clip-rule="evenodd" d="M78.3719 96.6543C76.8487 97.6255 75.3628 98.688 72.8602 97.6089C73.7857 98.6631 74.5286 100.207 73.9974 100.938C72.2501 103.353 72.1753 104.681 72.773 105.98C73.3333 107.2 79.5547 107.499 80.6421 105.088C81.1775 103.905 81.053 102.818 78.0315 100.635C76.9815 99.875 77.3716 97.7376 78.3719 96.6543Z" fill="#DCB37D"/>
<path d="M75.6201 66.5183C76.5208 65.8418 77.3716 65.1694 78.2473 64.4722C78.928 64.7668 79.5796 65.0947 80.252 65.5056C79.5007 66.1406 78.7412 66.7258 77.9775 67.3235C77.2761 66.9583 76.4087 66.6843 75.6201 66.5183ZM80.335 68.9836C81.0322 68.4316 81.6755 67.8879 82.3479 67.3152C82.821 67.8506 83.261 68.4482 83.6055 69.0168C82.9456 69.6021 82.2815 70.1208 81.5967 70.6562C81.219 70.0046 80.7666 69.3779 80.335 68.9836ZM82.5886 73.0552C83.3647 72.4119 83.9998 71.9097 84.6887 71.3286C84.9502 72.0508 85.1204 72.7065 85.2781 73.3872C84.5393 74.0015 83.813 74.5867 83.0742 75.1719C82.9331 74.4124 82.8169 73.7151 82.5886 73.0552ZM83.3979 78.3635C84.2197 77.7285 84.9585 77.0852 85.7678 76.4336C85.8508 77.2388 85.8799 78.0771 85.9255 78.8408C85.0706 79.5256 84.2986 80.2021 83.4353 80.8704C83.4934 79.8743 83.4353 78.9072 83.3979 78.3635Z" fill="#DCB37D"/>
<path fill-rule="evenodd" clip-rule="evenodd" d="M82.2566 81.5801C84.5435 82.9871 86.1705 82.5181 87.096 81.6382C87.096 81.6382 86.158 84.1201 86.8719 85.4233C88.3204 88.0879 90.8646 87.4487 91.8648 85.967V85.9753L91.7444 86.4485L92.0101 85.9961V86.4485L92.1387 86.021L92.2881 86.4941L92.3172 86.021L92.4625 86.5149L92.5289 86.0085L92.6575 86.4485L92.7571 86.0127C92.8899 86.2825 92.9771 86.5481 93.0228 86.8179L92.6658 88.7104C91.9686 89.8726 90.5657 91.6282 88.8516 91.3542C87.5276 91.1384 84.2862 91.8066 82.6302 90.4121C82.1736 90.0344 81.8375 89.4907 81.576 88.8599C81.0323 87.5691 82.1736 86.075 82.7298 84.7925C83.3233 83.4229 82.7588 82.7629 82.2525 81.5801H82.2566Z" fill="#DCB37D"/>
<path d="M81.5718 39.5076C81.5718 39.5076 73.9973 38.4741 70.208 37.9553C69.8179 37.9014 69.2783 40.6572 69.1248 40.9851C64.3228 51.1909 66.8877 54.669 66.178 62.6792C66.1489 63.0735 66.4353 63.8621 67.2114 64.1069C70.8845 65.2566 73.4495 66.8919 81.1401 66.0784C82.0076 65.9871 82.0574 65.2815 82.1321 64.9287C84.1077 55.7522 84.2322 52.0418 82.3479 41.6699C82.2649 41.2092 81.6465 39.5159 81.5718 39.5076Z" fill="#DCB37D"/>
<path d="M53.0337 22.4536C51.8675 22.437 51.0581 22.989 50.282 23.5908C50.0205 23.7942 49.6304 23.5701 49.5059 23.2712L49.3523 22.8977C49.232 22.5906 49.4063 22.3084 49.6802 22.1174C50.5352 21.5156 51.4151 21.0051 52.4319 20.9761C52.7598 20.9678 53.0877 20.9968 53.208 21.304L53.3616 21.6733C53.4861 21.9805 53.3658 22.4536 53.0337 22.4536Z" fill="white"/>
<path fill-rule="evenodd" clip-rule="evenodd" d="M66.2485 57.0886C66.0617 57.0139 65.9082 54.1169 66.1074 53.4155C67.4023 55.3828 78.1684 57.3252 83.5598 56.4204C83.5598 56.4204 83.539 57.5493 83.2153 59.2842C77.5293 60.4546 71.5859 59.3008 66.2485 57.0886Z" fill="#000010"/>
<path fill-rule="evenodd" clip-rule="evenodd" d="M80.9533 38.4036C83.2817 32.1033 67.7758 34.8135 69.0293 37.9636C71.9262 42.2925 80.2685 40.7942 80.9533 38.4036Z" fill="white"/>
<path d="M90.2295 28.8411C89.03 30.0737 88.6897 31.6758 89.4617 32.4311C90.2378 33.1824 91.9063 34.1785 93.031 31.572C93.666 30.1028 95.4714 26.9651 95.1892 26.4131C94.6995 25.4502 91.4207 27.6125 90.2295 28.8411Z" fill="#FFCCAA"/>
<path fill-rule="evenodd" clip-rule="evenodd" d="M60.5335 26.3674C60.5169 26.3716 60.5003 26.3716 60.4878 26.3757C60.1309 26.5044 59.9856 27.1477 59.637 27.293C56.1922 27.928 52.4527 29.7749 50.4273 32.7466C49.9624 33.3733 50.8797 34.1121 51.2989 33.4521C52.021 32.3938 52.9881 31.4019 54.0755 30.5552C53.3782 31.4185 52.7847 32.4021 52.3697 33.5808C52.1124 34.2988 53.125 34.7346 53.3782 34.0166C53.6148 33.3608 53.9136 32.7881 54.2498 32.2444C53.7808 33.199 53.4239 34.4524 53.1499 36.2288C53.0254 36.9966 54.1045 37.2083 54.2166 36.4404C54.6524 33.5974 55.221 32.4229 56.0884 31.5305C56.1299 31.489 56.1839 31.4517 56.2254 31.4102C55.8477 32.5017 55.6651 33.668 55.5032 34.7139C55.4078 35.3198 56.1382 35.6643 56.4744 35.1746C56.1922 36.5566 56.0137 37.8557 55.993 38.7605C55.9349 39.5781 57.097 39.6279 57.0721 38.8103C57.097 37.561 57.483 35.1331 58.1429 33.0039C58.2964 32.5142 58.4666 32.0452 58.6451 31.6011C58.4666 33.1824 58.6741 34.7886 59.417 36.345C59.7491 37.0505 60.7161 36.5276 60.3799 35.8303C59.4668 33.9211 59.4834 31.9622 60.1019 30.0156C66.6885 43.6082 86.8345 39.354 90.6155 31.7422C90.6238 31.7463 90.6321 31.7505 90.6363 31.7546C91.346 34.1826 91.2962 36.5068 89.9888 38.5488C89.5489 39.188 90.4869 39.8977 90.8853 39.2212C91.7901 37.8018 92.1719 36.2454 92.1636 34.6433C92.2923 35.1165 92.4126 35.6104 92.5123 36.125C92.9356 38.3372 93.056 40.8149 92.9439 42.0559C92.8567 42.8445 93.969 42.9814 94.0188 42.1887C94.0977 41.2881 94.0645 39.9766 93.9317 38.5613C94.2139 39.0967 94.9651 38.8726 94.9444 38.2625C94.8946 37.1958 94.8406 36.0088 94.5874 34.8674C94.6207 34.9131 94.6705 34.9587 94.7037 35.0044C95.4715 36.0337 95.899 37.2913 96.0276 40.1841C96.0608 40.9685 97.1482 40.9312 97.1067 40.1509C97.0279 38.3413 96.8121 37.0422 96.451 36.0171C96.7249 36.6106 96.9615 37.2332 97.1192 37.9221C97.2728 38.719 98.3851 38.4409 98.1692 37.6606C97.8829 36.4238 97.4014 35.3447 96.8038 34.3735C97.7915 35.3987 98.6424 36.54 99.2442 37.7105C99.597 38.3911 100.535 37.8433 100.19 37.1584C98.4971 33.8796 95.264 30.9619 91.9187 29.7542C91.6199 29.5715 91.3252 29.3972 91.0181 29.2271L91.0015 25.5L90.325 24.8235C84.9295 20.0049 61.7745 24.7861 60.5335 26.3674ZM57.9893 30.3394C57.6573 31.0325 57.3667 31.8044 57.1177 32.6138C56.9642 33.1077 56.8313 33.6099 56.7068 34.1121C56.9476 32.7134 57.2837 31.3355 57.9893 30.3394ZM92.9522 33.5103C93.5415 34.6101 93.7242 36.0254 93.8113 37.449C93.7449 36.9385 93.6661 36.4197 93.5706 35.9133C93.4087 35.0667 93.2054 34.249 92.9522 33.5103Z" fill="#5C3718"/>
<path fill-rule="evenodd" clip-rule="evenodd" d="M84.1533 12.0278C93.8486 20.2415 95.4714 14.655 96.9282 7.91895C98.6257 12.9741 101.519 21.6235 90.1755 29.9575C78.6374 37.5693 62.1936 30.4099 60.4504 26.4421C59.5539 14.8044 77.2637 6.19653 84.1533 12.0278Z" fill="#DCB37D"/>
<path fill-rule="evenodd" clip-rule="evenodd" d="M65.7214 28.2642C62.9573 27.5378 60.8862 26.4338 60.272 24.8235C52.5356 37.395 92.4209 41.5039 91.6946 28.7415C90.9682 29.2229 90.2336 29.667 89.5032 30.0405C88.698 30.4473 87.9011 30.7959 87.1001 31.0864C86.2991 31.377 85.5063 31.6135 84.7219 31.7961C83.9333 31.9788 83.1489 32.1199 82.3811 32.2112C81.6091 32.3025 80.8496 32.3523 80.0984 32.3647C79.3555 32.3772 78.6208 32.3481 77.9028 32.2942C76.4751 32.1863 75.1096 31.9539 73.8437 31.6467C72.582 31.3438 71.4116 30.9661 70.3699 30.5718C69.3281 30.1733 68.4067 29.7542 67.6431 29.3723C66.8752 28.9822 66.2651 28.6252 65.8335 28.3472C65.7671 28.3057 65.7795 28.3015 65.7214 28.2642Z" fill="white"/>
<path d="M97.3931 10.7205L96.8784 9.92358L97.032 10.7454L96.6045 9.89868L96.675 10.7371L96.3306 9.85303L96.3181 10.6914L96.0732 9.77832L95.9653 10.6084L95.8159 9.67041L95.625 10.488L95.5752 9.5376L95.2971 10.3345L95.3469 9.38403L94.9858 10.1436L95.1353 9.20557L94.6995 9.92773L94.9485 9.0105L94.438 9.67871L94.7825 8.79053L94.2014 9.40478L94.6372 8.55811L93.998 9.10596L94.5168 8.30908L93.8279 8.78638L94.4255 8.05176L93.6868 8.45434L94.3591 7.78613L93.583 8.10986L94.3218 7.51221L93.5166 7.75293L94.3135 7.23413L93.4917 7.39184L94.3342 6.9602L93.4958 7.03491L94.384 6.69458L93.5457 6.67383L94.4629 6.42895L93.6287 6.32105L94.5667 6.17578L93.749 5.98071L94.6995 5.93091L93.9026 5.65698L94.853 5.70679L94.0935 5.3457L95.0315 5.49512L94.3093 5.05933L95.2266 5.30835L94.5583 4.79785L95.4465 5.13818L94.8323 4.56128L95.679 4.99292L95.1311 4.35791L95.928 4.87671L95.4507 4.18359L96.1853 4.78125L95.7827 4.04248L96.4509 4.71899L96.1272 3.94287L96.7249 4.68164L96.4841 3.87231L97.0029 4.67334L96.8452 3.84741L97.2727 4.69409L97.2021 3.85571L97.5425 4.7439L97.5632 3.90137L97.8081 4.8186L97.916 3.98437L98.0613 4.92236L98.2563 4.10474L98.3062 5.05518L98.5801 4.26245L98.5303 5.20874L98.8914 4.44922L98.7378 5.38721L99.1736 4.66919L98.9287 5.58227L99.4392 4.91821L99.0947 5.8064L99.6758 5.19214L99.2441 6.03882L99.8792 5.49097L99.3604 6.28369L100.053 5.8064L99.4517 6.54102L100.195 6.13843L99.5181 6.81079L100.294 6.48706L99.5554 7.08472L100.365 6.84399L99.5637 7.35864L100.39 7.20508L99.543 7.63257L100.381 7.56201L99.4932 7.90234L100.336 7.91895L99.4185 8.16382L100.253 8.27173L99.3147 8.41699L100.128 8.61206L99.1819 8.66187L99.9746 8.93579L99.0242 8.89014L99.7837 9.24707L98.8499 9.10181L99.5679 9.53345L98.6506 9.28858L99.3188 9.79492L98.4307 9.45459L99.0449 10.0356L98.1982 9.59985L98.7461 10.2349L97.9534 9.71606L98.4307 10.4092L97.6919 9.81152L98.0945 10.5503L97.4263 9.87378L97.75 10.6499L97.1523 9.91528L97.3931 10.7205Z" fill="white"/>
</g>
<defs>
<clipPath id="clip0_151_354">
<rect width="153" height="153" fill="white"/>
</clipPath>
</defs>
</svg>
