<svg width="65" height="65" viewBox="0 0 65 65" fill="none" xmlns="http://www.w3.org/2000/svg">
<g clip-path="url(#clip0_153_384)">
<path fill-rule="evenodd" clip-rule="evenodd" d="M41.6865 45.9958C37.4124 44.4883 33.431 44.8145 29.9504 46.0787C25.6217 47.6515 22.0299 50.6137 19.244 53.1987L20.436 54.4858C23.1602 51.9609 26.5967 49.1644 30.5517 47.7291C33.5174 46.65 36.7583 46.3009 40.3288 47.3853C40.3835 47.3782 41.6865 45.9958 41.6865 45.9958Z" fill="white"/>
<path d="M38.8036 46.9956C38.7313 46.3978 38.6872 45.8213 38.6291 45.2218C38.1618 45.1459 37.7016 45.0913 37.2467 45.0578C37.296 45.6449 37.3313 46.2074 37.4001 46.7893C37.7986 46.8175 38.3487 46.8792 38.8036 46.9956ZM35.6227 46.7223C35.5504 46.1386 35.5134 45.592 35.457 45.0155C35.0038 45.0207 34.5031 45.0613 34.0922 45.1071C34.154 45.682 34.1963 46.2391 34.2791 46.814C34.7623 46.7575 35.1802 46.7205 35.6227 46.7223ZM32.5547 47.1243C32.5 46.4543 32.4789 46.0134 32.4401 45.3752C31.9958 45.4686 31.6026 45.5762 31.2005 45.689C31.2499 46.2868 31.2852 46.8669 31.3451 47.454C31.7648 47.3253 32.1562 47.2142 32.5547 47.1243ZM29.6418 48.0747C29.5766 47.4646 29.5466 46.8792 29.492 46.2674C29.0318 46.4454 28.6262 46.6182 28.2312 46.8034C28.2824 47.4293 28.33 48.0306 28.3935 48.6548C28.8131 48.4185 29.2328 48.2457 29.6418 48.0747ZM26.8154 49.517C26.7519 48.8664 26.6796 48.2598 26.6267 47.6286C26.1506 47.8931 25.6992 48.1593 25.2461 48.4485C25.3113 49.0868 25.4083 49.7233 25.4912 50.3686C25.9232 50.0759 26.3657 49.7885 26.8154 49.517ZM23.6909 51.677C23.5181 51.1145 23.4564 50.4956 23.4652 49.681C23.1126 49.9384 22.774 50.1976 22.4355 50.4639C22.3032 51.2979 22.5325 51.8568 22.7194 52.4616C23.042 52.1954 23.3559 51.9397 23.6909 51.677Z" fill="#DCB37D"/>
<path fill-rule="evenodd" clip-rule="evenodd" d="M20.9032 50.686C20.8944 51.543 21.3969 52.608 23.0984 53.2586C22.3032 53.4719 21.7337 53.4349 21.3422 54.3112C20.9737 55.1294 20.7674 56.3478 19.9034 56.5858C15.6963 57.7407 12.7288 48.9792 16.8777 49.4059C16.1795 50.4797 16.95 52.7049 19.1805 52.3505C20.1309 52.2007 20.9032 50.686 20.9032 50.686Z" fill="#DCB37D"/>
<path d="M16.2588 49.8044L16.444 49.5117L16.1936 49.688L16.4087 49.4165L16.1407 49.5681L16.384 49.3195L16.1019 49.443L16.3682 49.219L16.0755 49.3125L16.3646 49.1185L16.0631 49.1802L16.3699 49.0198L16.0631 49.048L16.3875 48.921L16.079 48.9175L16.414 48.8223L16.1072 48.7888L16.451 48.7306L16.1513 48.6636L16.4969 48.6389L16.2059 48.5437L16.5533 48.5578L16.2729 48.4291L16.6168 48.4785L16.3505 48.3233L16.6891 48.4079L16.4422 48.2246L16.7666 48.3445L16.5409 48.1382L16.853 48.2916L16.6485 48.0606L16.9412 48.2475L16.7631 47.9953L17.0364 48.2122L16.8848 47.9442L17.1334 48.1875L17.01 47.9054L17.2321 48.1717L17.1404 47.879L17.3326 48.1664L17.2727 47.8666L17.4349 48.1734L17.4032 47.8684L17.5319 48.1911L17.5354 47.8825L17.6289 48.2175L17.6641 47.9125L17.7241 48.2545L17.7911 47.953L17.8122 48.3004L17.911 48.0094L17.8969 48.3568L18.0238 48.0764L17.9745 48.4203L18.1296 48.1558L18.0432 48.4926L18.2266 48.244L18.1067 48.5719L18.3148 48.3427L18.1596 48.6548L18.3906 48.452L18.2054 48.7465L18.4558 48.5684L18.2407 48.8399L18.507 48.6883L18.2654 48.9369L18.5475 48.8135L18.2795 49.0374L18.5722 48.944L18.2848 49.1379L18.5863 49.0762L18.2777 49.2367L18.5845 49.2084L18.2619 49.3354L18.5687 49.3389L18.2337 49.4341L18.5405 49.4676L18.1984 49.5276L18.4999 49.5928L18.1525 49.6175L18.4435 49.7145L18.0944 49.6986L18.3765 49.8273L18.0326 49.778L18.2971 49.9331L17.9604 49.8485L18.209 50.0319L17.881 49.9102L18.1085 50.1183L17.7964 49.9649L18.0009 50.1959L17.7064 50.009L17.8845 50.2593L17.613 50.0442L17.7629 50.3122L17.5143 50.0689L17.6377 50.351L17.4155 50.0848L17.509 50.3775L17.315 50.0883L17.3767 50.3898L17.2163 50.083L17.2445 50.3881L17.1158 50.0654L17.1122 50.3739L17.0188 50.0389L16.9835 50.344L16.9236 50.0019L16.8601 50.3017L16.8354 49.9561L16.7384 50.247L16.7508 49.8996L16.6256 50.18L16.675 49.8362L16.518 50.1006L16.6044 49.7639L16.421 50.0125L16.5427 49.6863L16.3346 49.9137L16.4881 49.5999L16.2588 49.8044Z" fill="white"/>
<path fill-rule="evenodd" clip-rule="evenodd" d="M47.9883 42.9066C45.1371 44.4318 40.327 45.8777 38.4139 46.3802C36.0758 46.9938 34.4219 48.0341 33.3481 49.5082C31.3909 52.1848 31.569 55.9035 32.4788 60.3027L34.1856 59.9483C33.3075 55.7077 33.2987 52.5286 34.7552 50.5362C35.4799 49.5435 36.626 48.7465 38.3592 48.2105C43.7759 47.9583 46.8774 47.8525 47.9883 42.9066Z" fill="white"/>
<path fill-rule="evenodd" clip-rule="evenodd" d="M32.7063 50.582C33.2071 50.8853 33.7079 51.148 34.228 51.4195C34.429 50.9805 34.6918 50.5555 34.9562 50.2699C34.4255 49.9895 33.9389 49.7074 33.4275 49.4147C33.1472 49.7903 32.8968 50.1994 32.7063 50.582ZM32.1545 52.1125C32.0346 52.5815 31.9711 53.0064 31.9199 53.4402C32.4824 53.7558 33.029 54.052 33.5897 54.3518C33.6197 53.8651 33.6426 53.4243 33.7414 52.9976C33.156 52.6661 32.6764 52.4105 32.1545 52.1125ZM34.7182 48.1064C35.2877 48.4326 35.8608 48.7288 36.4356 49.0321C36.887 48.7447 37.4618 48.4978 37.989 48.3233C37.3155 47.9847 36.6736 47.6427 36.0124 47.2865C35.5681 47.5298 35.1449 47.7908 34.7182 48.1064ZM27.8786 61.9478C26.431 64.9471 34.6054 66.7086 35.8008 62.7536C36.0583 61.902 35.1449 61.0838 34.653 60.3415C34.124 59.5498 34.4537 59.0896 34.697 58.3085C33.2477 59.3929 32.0857 59.2536 31.3733 58.7952C31.3733 58.7952 32.2356 60.2428 31.8582 61.1209C30.9766 63.1839 28.6985 62.6531 28.1642 61.4982C28.0443 61.6498 27.9509 61.7997 27.8786 61.9478ZM31.8388 55.3727C31.8477 55.8805 31.8988 56.4007 31.9358 56.882C32.5776 57.2312 33.1701 57.5803 33.8207 57.9171C33.6955 57.3035 33.6567 56.6987 33.632 56.3566C33.0132 56.0375 32.4507 55.7042 31.8388 55.3727ZM38.0278 46.4737C38.4757 46.9533 39.5107 48.1487 39.5107 48.1487C39.5107 48.1487 41.1787 48.0447 41.2034 48.0412C41.2034 48.0412 40.089 46.7963 39.5601 46.2638C39.0805 46.1915 38.525 46.2973 38.0278 46.4737ZM41.0094 46.1228C41.4591 46.6006 42.614 47.879 42.614 47.879C42.6034 47.9089 44.0669 47.5863 44.0986 47.5598C44.0986 47.5598 43.0724 46.4454 42.5435 45.9129C42.0621 45.8406 41.5084 45.9447 41.0094 46.1228Z" fill="#DCB37D"/>
<path d="M28.1713 62.23L28.0231 61.9179L28.0408 62.2229L27.9244 61.8985L27.9121 62.2053L27.8309 61.8685L27.7851 62.17L27.7393 61.8279L27.6617 62.1242L27.6529 61.7786L27.5453 62.0642L27.5718 61.7204L27.4342 61.9937L27.4977 61.6534L27.3319 61.9126L27.4307 61.5793L27.2385 61.8191L27.3707 61.5L27.1574 61.7169L27.3214 61.4136L27.0851 61.6075L27.2791 61.3237L27.0234 61.4912L27.2473 61.2267L26.9775 61.3677L27.2262 61.1297L26.9423 61.2408L27.2173 61.031L26.9211 61.1103L27.2156 60.9305L26.9141 60.9798L27.2244 60.8317L26.9211 60.8493L27.2456 60.7347L26.9405 60.7189L27.2773 60.6378L26.974 60.5919L27.3161 60.5478L27.0216 60.4685L27.3655 60.4597L27.0798 60.3521L27.4236 60.3803L27.1521 60.241L27.4906 60.3045L27.2332 60.1405L27.5647 60.2375L27.3267 60.0453L27.644 60.1775L27.4272 59.9642L27.7322 60.1282L27.5382 59.8919L27.8221 60.0876L27.6546 59.832L27.9173 60.0559L27.7763 59.7843L28.0143 60.0347L27.9032 59.7491L28.1131 60.0241L28.0337 59.7297L28.2153 60.0241L28.1642 59.7209L28.3141 60.033L28.2947 59.7279L28.4111 60.0524L28.4252 59.7491L28.5063 60.0841L28.5521 59.7808L28.598 60.1247L28.6755 59.8284L28.6844 60.1723L28.7919 59.8866L28.7655 60.2322L28.903 59.9589L28.8395 60.2974L29.0053 60.0418L28.9065 60.3715L29.097 60.1335L28.9665 60.4526L29.1816 60.234L29.0176 60.539L29.2539 60.3451L29.0564 60.6289L29.3138 60.4614L29.0899 60.7242L29.3614 60.5831L29.1093 60.8211L29.3949 60.7118L29.1216 60.9199L29.4161 60.8405L29.1216 61.0221L29.4231 60.9728L29.1111 61.1209L29.4161 61.1032L29.0917 61.2179L29.3967 61.232L29.0599 61.3131L29.3632 61.3589L29.0211 61.4048L29.3174 61.4823L28.9718 61.4912L29.2574 61.5987L28.9136 61.5723L29.1851 61.7098L28.8466 61.6463L29.104 61.8121L28.7725 61.7151L29.0106 61.9055L28.6914 61.7733L28.91 61.9884L28.6068 61.8244L28.8007 62.0607L28.5133 61.865L28.6826 62.1206L28.4199 61.8967L28.5609 62.1665L28.3229 61.9161L28.434 62.2035L28.2224 61.9284L28.3035 62.2229L28.1219 61.9284L28.1713 62.23Z" fill="white"/>
<path fill-rule="evenodd" clip-rule="evenodd" d="M51.2308 17.1598C50.589 20.1415 48.2616 23.6856 45.2658 26.0413C43.8623 27.1451 42.2701 27.7904 40.6655 28.1201C40.2864 27.7022 39.8879 27.2773 39.463 26.8365C39.2479 26.6143 39.024 26.4098 38.7824 26.5244L31.5108 29.975C31.2692 30.0897 31.2393 30.3947 31.3204 30.6997C31.3292 30.735 31.3398 30.7703 31.3486 30.8055C29.9362 31.0982 28.411 31.1476 26.8382 30.9413C23.0614 30.4441 19.251 28.5874 17.1757 26.3516L15.4495 27.9544C18.0326 30.7385 22.2273 32.7116 26.5314 33.2776C28.8501 33.4063 30.5516 33.4574 32.008 33.17C33.6038 38.6114 35.0866 41.4502 37.7438 45.592C39.0557 47.886 48.7412 45.5215 48.2686 41.9545C48.2157 41.5454 48.0588 41.1028 47.9283 40.6426C46.6165 37.0456 45.4404 34.0411 42.5557 30.3577C43.7759 29.8305 45.0683 29.0035 46.7222 27.8927C50.1341 25.209 52.7331 21.3687 53.5354 17.6571L51.2308 17.1598Z" fill="#DCB37D"/>
<path fill-rule="evenodd" clip-rule="evenodd" d="M44.9115 22.7299C44.5712 25.0521 40.8472 27.4113 40.4487 27.5206C43.0636 28.337 45.8319 27.2579 46.3009 26.8382C44.818 26.5826 44.8621 23.5939 45.4986 22.7158L44.9714 22.6488L44.9115 22.7299Z" fill="#FFE680"/>
<path fill-rule="evenodd" clip-rule="evenodd" d="M21.2206 23.34C21.6438 24.6695 22.6312 26.7272 21.4868 28.9806C24.3821 29.8657 26.4133 29.3368 28.404 28.5204C25.4964 28.1201 22.5395 26.3586 21.2206 23.34Z" fill="#FFE680"/>
<path d="M14.0671 22.4213C14.924 22.0422 16.1071 22.8692 16.726 24.278C17.3432 25.6868 17.1651 27.1539 16.3258 27.57C15.4847 27.9843 14.2945 27.1944 13.628 25.7327C13.0021 24.2498 13.2119 22.804 14.0653 22.4213H14.0671Z" fill="#FFCCAA"/>
<path d="M17.6377 26.907C16.8002 27.1592 16.347 27.7357 15.9309 28.3388C15.7916 28.5433 15.4601 28.4745 15.3014 28.2841L15.1075 28.0531C14.947 27.8627 15.0105 27.6194 15.1621 27.4219C15.6364 26.803 16.1478 26.237 16.8672 25.9901C17.1017 25.909 17.3397 25.8544 17.5002 26.0448L17.6924 26.2758C17.8528 26.4644 17.8757 26.8347 17.6377 26.907Z" fill="white"/>
<path fill-rule="evenodd" clip-rule="evenodd" d="M46.3238 36.5607C45.5427 38.9023 40.6497 42.1379 35.2719 41.519C35.7497 42.4993 36.2311 43.4797 36.9134 44.3772C41.4326 44.5993 44.0299 43.6578 47.5158 39.5388C47.6092 39.4313 46.7047 37.0721 46.3238 36.5607Z" fill="#000010"/>
<path fill-rule="evenodd" clip-rule="evenodd" d="M38.6413 41.1522L36.5554 41.4678L37.8479 44.6452L40.4486 44.2731L38.6413 41.1522ZM39.7116 43.8041L38.0401 44.0439L37.0985 41.921L38.6537 41.6829L39.7116 43.8041Z" fill="white"/>
<path d="M36.2574 36.864C35.933 37.1056 35.4393 36.991 35.1519 36.6084C34.8645 36.2257 34.8874 35.7144 35.2065 35.4658C35.5239 35.2154 36.0158 35.3159 36.3244 35.7091C36.6171 36.1146 36.5818 36.6225 36.2574 36.864Z" fill="#000010"/>
<path d="M37.3789 39.7945C37.0227 39.9832 36.5519 39.798 36.3245 39.3766C36.097 38.9552 36.1958 38.4544 36.5484 38.2552C36.8993 38.0542 37.3718 38.227 37.6187 38.6643C37.8462 39.1086 37.7368 39.6041 37.3789 39.7945Z" fill="#000010"/>
<path fill-rule="evenodd" clip-rule="evenodd" d="M31.0471 29.4567C30.8638 32.9849 34.0676 31.8388 34.2633 30.0227C35.5575 31.8282 40.7873 31.8088 40.3006 28.2806C37.8568 29.342 34.1857 29.7934 31.0471 29.4567Z" fill="white"/>
<path d="M35.3882 33.9617C35.0249 34.1416 34.5612 33.9406 34.3478 33.5121C34.1327 33.0836 34.2473 32.5882 34.6053 32.3977C34.9632 32.2091 35.4305 32.3977 35.6632 32.8403C35.8783 33.2935 35.7514 33.7836 35.3882 33.9617Z" fill="#000010"/>
<path d="M28.5292 13.4359C24.5301 14.2135 21.4815 16.31 20.4341 19.0042C19.3991 17.7787 17.7963 16.3734 17.3308 16.9518C16.9958 17.3679 17.9727 20.3301 18.2513 21.6825C18.6409 23.5639 19.6989 23.6274 20.517 23.3241C21.9734 26.8594 26.6619 29.4972 32.0839 29.8358C38.9693 30.2589 44.8656 26.84 45.1459 22.2626C45.428 17.6853 39.9955 13.5716 33.1118 13.1485C31.5549 13.0533 30.0015 13.1502 28.5292 13.4359Z" fill="#FFCCAA"/>
<path fill-rule="evenodd" clip-rule="evenodd" d="M28.4463 8.47588C23.6045 9.39452 19.3886 13.3318 20.1044 19.9651C22.4284 16.9447 22.8057 17.1581 24.5848 17.0117C24.5866 16.257 24.8687 15.5553 25.5088 14.9187C25.1579 15.557 24.6113 16.146 24.9798 16.9606C25.909 17.0276 26.6337 17.0399 27.3002 17.0417C27.3002 16.9341 27.2967 16.8283 27.3073 16.719C27.3249 16.5339 27.3549 16.3452 27.3972 16.1548C27.4378 15.9626 27.4889 15.7686 27.5488 15.5747C27.6088 15.3772 27.6776 15.1797 27.7498 14.9805C27.7428 15.282 27.7498 15.5359 27.734 15.8691C27.7252 16.0366 27.7111 16.2235 27.6864 16.4492C27.6687 16.615 27.6352 16.8283 27.6053 17.0399C28.6914 17.0346 29.603 16.9835 30.7156 16.9994C31.2199 16.2835 30.7562 15.3296 30.5534 14.4391C30.7844 15.2767 31.4967 16.1283 31.0542 16.9465C31.9922 17.0487 33.5368 17.1246 34.7428 17.0505C35.1272 16.1266 34.392 15.1709 34.2403 14.2311C34.5736 15.155 35.2136 16.0878 35.1431 16.9994C36.1058 17.2021 37.1091 16.9024 38.3839 16.8213C38.3892 16.7825 38.3963 16.7419 38.3963 16.7031C38.3963 16.6132 38.3857 16.5233 38.3663 16.4387C38.3487 16.3505 38.3205 16.2659 38.287 16.1812C38.2535 16.0984 38.2147 16.0155 38.1706 15.9326C38.0859 15.7686 37.9837 15.6082 37.8832 15.446C37.7827 15.2837 37.6839 15.1233 37.6028 14.9575C37.7527 15.1233 37.8938 15.289 38.0242 15.4565C38.1547 15.624 38.2728 15.7933 38.3786 15.9626C38.4844 16.1336 38.5761 16.3047 38.6537 16.4775C38.6996 16.585 38.7295 16.6943 38.763 16.8019C39.456 16.7878 40.2353 16.8601 41.1275 17.1052C41.1028 17.0029 41.0817 16.9006 41.0358 16.7895C40.9724 16.6291 40.8895 16.4633 40.7925 16.2941C40.6938 16.1266 40.5809 15.9538 40.4593 15.7845C40.3376 15.6152 40.2071 15.4495 40.0678 15.2873C40.2353 15.4089 40.3746 15.5306 40.4998 15.6646C40.6232 15.7968 40.7361 15.9379 40.8454 16.1019C40.9547 16.2623 41.0641 16.444 41.1857 16.652C41.2809 16.8142 41.3938 17.0135 41.5102 17.2145C41.5489 17.2268 41.5807 17.2339 41.6195 17.2462C42.9842 17.9603 43.6772 19.7042 44.0087 20.4624C45.0278 18.7221 45.1089 12.0288 40.4945 10.2162C39.4313 9.79831 38.0595 9.77009 36.4232 9.83181C34.0746 8.39124 31.1617 7.95925 28.4463 8.47588Z" fill="#FFE680"/>
<path fill-rule="evenodd" clip-rule="evenodd" d="M42.1414 6.24186C50.1112 14.4021 52.0314 9.54793 53.904 3.65519C54.9954 8.31719 55.9863 15.6893 45.146 22.178L44.0616 15.7528L36.0529 11.6656L23.2042 12.9175L20.2843 14.6684C20.4712 4.19121 36.4814 0.446096 42.1414 6.24186Z" fill="#DCB37D"/>
<path d="M37.1726 19.8593C37.6187 19.7976 38.0542 20.2614 38.1406 20.8856C38.2252 21.508 37.929 22.0704 37.4864 22.1322C37.4847 22.1322 37.4847 22.1322 37.4847 22.1322C37.0403 22.1939 36.603 21.7301 36.5184 21.1077C36.432 20.4853 36.7282 19.9211 37.1726 19.8593Z" fill="#000010"/>
<path d="M25.1491 20.048C25.5916 19.9704 26.0448 20.4201 26.1523 21.039C26.2581 21.6579 25.9831 22.2327 25.5387 22.3067V22.3085C25.0962 22.3843 24.6448 21.9382 24.5372 21.3158C24.4297 20.6969 24.7047 20.1256 25.1491 20.048Z" fill="#000010"/>
<path fill-rule="evenodd" clip-rule="evenodd" d="M20.1555 21.2981C21.4321 8.35775 45.4457 13.0004 45.1988 21.9347C46.3238 23.146 46.158 21.8765 46.6464 20.2173C50.6455 6.21541 11.2776 6.74791 20.1555 21.2981Z" fill="white"/>
<path d="M44.1144 19.3339C43.522 20.6863 43.7336 22.0863 44.587 22.4601C45.4404 22.8322 47.0837 23.1266 47.2036 20.6863C47.2706 19.3092 47.7732 16.2288 47.38 15.8709C46.6923 15.245 44.7069 17.9815 44.1144 19.3339Z" fill="#FFCCAA"/>
<path d="M31.2799 24.7153C31.86 24.6624 32.3995 25.2866 32.4754 26.0994C32.5477 26.9123 32.1351 27.6246 31.5532 27.6775H31.5514C30.9731 27.7322 30.4353 27.1063 30.3595 26.2934C30.2837 25.4805 30.7015 24.7682 31.2799 24.7153Z" fill="#000010"/>
<mask id="mask0_153_384" style="mask-type:luminance" maskUnits="userSpaceOnUse" x="50" y="0" width="7" height="7">
<path d="M50.5555 0H56.9631V6.31944H50.5555V0Z" fill="white"/>
</mask>
<g mask="url(#mask0_153_384)">
<path d="M53.2727 6.11844L53.8017 5.45018L53.5919 6.17487L54.0486 5.4537L53.9146 6.19779L54.2954 5.43431L54.2408 6.18721L54.537 5.38846L54.5599 6.14313L54.7733 5.31617L54.8755 6.06378L55.0007 5.21919L55.1806 5.9527L55.2158 5.10105L55.4733 5.80988L55.4186 4.96L55.7483 5.63884L55.6037 4.79778L56.004 5.4396L55.773 4.61793L56.2367 5.2139L55.9211 4.42044L56.4448 4.96528L56.0498 4.21062L56.6264 4.69551L56.1539 3.98669L56.7781 4.40986L56.235 3.75394L56.8997 4.10835L56.2914 3.51414L56.9914 3.79802L56.3196 3.26905L57.0461 3.47711L56.3249 3.0222L57.069 3.15444L56.3038 2.77534L57.0584 2.83L56.2579 2.53202L57.0126 2.50909L56.1856 2.29751L56.935 2.19347L56.0904 2.07005L56.8239 1.88843L55.9705 1.85493L56.6811 1.5975L55.8312 1.6504L56.5101 1.32244L55.6672 1.46702L56.309 1.06677L55.4874 1.29599L56.0833 0.832255L55.2917 1.14787L55.8347 0.624193L55.0801 1.02092L55.5667 0.44258L54.8561 0.916891L55.2811 0.290941L54.6234 0.834018L54.9796 0.169278L54.3836 0.779358L54.6675 0.0793524L54.1385 0.749383L54.3483 0.0229289L53.8934 0.744093L54.0239 0.00177002L53.6466 0.767015L53.7012 0.0105862L53.4032 0.812859L53.3785 0.0581935L53.1687 0.885152L53.0647 0.135776L52.9413 0.980367L52.7596 0.245097L52.7261 1.0985L52.4687 0.387919L52.5216 1.23956L52.1936 0.560717L52.3365 1.40178L51.938 0.761726L52.1672 1.58163L51.7035 0.985657L52.0191 1.77735L51.4954 1.23427L51.8921 1.9907L51.3138 1.50229L51.7881 2.21287L51.1604 1.78969L51.7052 2.44562L51.0387 2.08944L51.6506 2.68718L50.9506 2.4033L51.6206 2.93227L50.8941 2.72068L51.6153 3.17736L50.8712 3.04512L51.6365 3.42245L50.8836 3.36955L51.6823 3.66578L50.9276 3.69046L51.7546 3.90205L51.007 4.00432L51.8516 4.12775L51.1163 4.30936L51.9697 4.34463L51.2591 4.60206L52.1108 4.5474L51.4319 4.87536L52.2712 4.7343L51.6312 5.13279L52.4528 4.90181L51.8551 5.36554L52.6486 5.04992L52.1037 5.5736L52.8601 5.17864L52.3735 5.75522L53.0823 5.28267L52.6609 5.90862L53.3168 5.36378L52.9607 6.03028L53.5566 5.4202L53.2727 6.11844Z" fill="white"/>
</g>
<path d="M51.8991 12.1945C50.9681 12.3039 50.3704 13.621 50.5591 15.148C50.746 16.6749 51.6487 17.844 52.5833 17.7717C53.5178 17.6994 54.1367 16.414 53.9639 14.8147C53.7452 13.2243 52.8284 12.0852 51.8991 12.1945Z" fill="#FFCCAA"/>
<path d="M51.1163 17.8722C51.9679 17.6641 52.6485 17.9268 53.3168 18.2336C53.5407 18.3377 53.7876 18.1085 53.8299 17.8651L53.8793 17.5654C53.9181 17.3221 53.7382 17.1457 53.509 17.0523C52.7861 16.7613 52.0579 16.5374 51.3102 16.6908C51.0669 16.7419 50.8359 16.816 50.7954 17.0611L50.746 17.3591C50.7054 17.6042 50.8747 17.9321 51.1145 17.8722H51.1163Z" fill="white"/>
</g>
<defs>
<clipPath id="clip0_153_384">
<rect width="65" height="65" fill="white"/>
</clipPath>
</defs>
</svg>
