<?xml version="1.0" encoding="utf-8"?>
<!-- Generator: Adobe Illustrator 23.0.1, SVG Export Plug-In . SVG Version: 6.00 Build 0)  -->
<svg version="1.1" id="Layer_1" xmlns="http://www.w3.org/2000/svg" xmlns:xlink="http://www.w3.org/1999/xlink" x="0px" y="0px"
	 viewBox="0 0 245 129" style="enable-background:new 0 0 245 129;" xml:space="preserve">
<style type="text/css">
	.st0{fill-rule:evenodd;clip-rule:evenodd;fill:#FFFFFF;}
	.st1{fill-rule:evenodd;clip-rule:evenodd;fill:#DCB37D;}
	.st2{fill:#DCB37D;}
	.st3{fill:#FFFFFF;}
	.st4{fill-rule:evenodd;clip-rule:evenodd;fill:#FFE680;}
	.st5{fill:#FFCCAA;}
	.st6{fill:#000010;}
</style>
<path class="st0" d="M82.6,116.8l10.2-9l-17.2,0.1L82.6,116.8z"/>
<path class="st1" d="M81.3,109.5c1.9,0.6,4.1,1.6,4,4.8l2.8-2.5c0.3-1.6-1.7-2.1-3-2.9L81.3,109.5z"/>
<path class="st0" d="M158.7,116.8l-10.2-9l17.2,0.1L158.7,116.8z"/>
<path class="st1" d="M160,109.5c-1.9,0.6-4.1,1.6-4,4.8l-2.8-2.5c-0.3-1.6,1.7-2.1,3-2.9L160,109.5z"/>
<path class="st2" d="M1.2,66.1c-0.8,0-1.2,1-0.6,1.6l13.2,10.9L0.7,88.3c-0.5,0.4-0.5,1.1,0,1.4l13.7,9.7L0.7,109.9
	c-0.7,0.5-0.3,1.6,0.5,1.6h40.6c0.2,0,0.4-0.1,0.5-0.2L56,100.5l12.2,10.8c0.2,0.1,0.4,0.2,0.6,0.2h107.6c0.3,0,0.5-0.2,0.7-0.4
	l12-10.6c4.2,3.9,9.4,6.6,13.4,10.7c0.2,0.2,0.4,0.3,0.7,0.3h40.6c0.8,0,1.2-1.1,0.5-1.6l-13.7-10.4l13.7-9.7c0.5-0.3,0.5-1.1,0-1.4
	l-13.1-9.7l13.2-10.9c0.6-0.5,0.3-1.6-0.6-1.6h-40.6c-0.2,0-0.4,0.1-0.6,0.2c-4.5,3.8-9.2,7.5-13.3,10.7l-12.2-10.6
	c-0.3-0.2-0.4-0.4-0.7-0.4H68.8c-0.2,0-0.4,0.1-0.6,0.2L55.8,77.1L42.3,66.3c-0.2-0.1-0.4-0.2-0.6-0.2H1.2z"/>
<path class="st2" d="M129.6,59.7c8.6-0.3,14,2.6,13.7,7.9l-41.5-0.1c0.2-3.1,3.2-6.5,9-7L129.6,59.7z"/>
<path class="st3" d="M1.2,67l14,11.6L1.2,89l14.6,10.4L1.2,110.6h39.6C37.5,95.7,36.1,81,40.9,67H1.2z M41.4,67
	c-4.8,14-3.4,28.7-0.1,43.6c0.1,0.1,0.2,0.3,0.5,0L56,99.4l11.9,10.4c-3.1-14.3-4.3-28.5,0.1-42L55.9,78.3L41.8,67
	C41.6,66.9,41.5,67,41.4,67z M68.8,67c-0.2,0-0.1,0.1-0.2,0.2c-4.7,13.8-3.4,28.4-0.2,43.1c0.1,0.2,0.2,0.3,0.3,0.3h107.3
	c3.3-14.9,4.7-29.6-0.2-43.6H68.8z M189.3,78.3l-12.8-11.1c4.7,13.9,3.4,28.5,0.2,43.3l12.5-11c4.7,3.8,9.6,7.4,14.2,11.2
	c3.3-14.9,4.6-29.6-0.1-43.5C198.6,70.8,194,74.5,189.3,78.3z M203.7,67c4.7,14,3.4,28.7,0.1,43.6h40l-14.6-11.2L243.8,89l-14-10.4
	l14-11.6H203.7z"/>
<path class="st1" d="M71.6,96.5c0.9-2.8,6.8,9.6,9.9,12.1c9.1,7.5-9.3,20.2-12.6,1.5C68.1,105.1,71.6,96.5,71.6,96.5z"/>
<path class="st1" d="M169.6,96.5c-0.9-2.8-6.8,9.6-9.9,12.1c-9.1,7.5,9.3,20.2,12.6,1.5C173.1,105.1,169.6,96.5,169.6,96.5z"/>
<path class="st4" d="M141.3,30.4l-0.7,1c0,0,0.7,7.1,3.1,9.3c7.6,7.2,1.4,9.9-1.9,13.7l-0.6-2l-36.8,0.1c-0.9-3.4-2.4-6.9-2.2-10.4
	c0.2-3,2.7-8.6,2.7-8.6l-0.6-0.9c0,0-9.5,1-10.9,8.4c-1.1,5.8,6,10.8,6,16.7c0.1,5.6-7.2,3.4-7.2,3.4c-0.7,1.8,3.3,4.4,7.1,3.9
	c6.9-0.3,17.4-6.7,22.1-5.5c9.5-1,18,4.2,21.7,5.8c4.5,2.6,12.5-1.6,11.5-4.1c0,0-7.8,2.5-7.6-3.6c0.1-6.4,8.5-11.8,7.2-18.1
	C152.4,31.6,141.3,30.4,141.3,30.4z"/>
<path class="st0" d="M113.1,58.6c-1.7,7.1,7.8,6.2,8.9,2.5c2,4.2,9.9,5.7,10.2-1.6C126.8,60.8,119.4,60.4,113.1,58.6z"/>
<path class="st1" d="M96.1,28.9c20-11.1,52.9-14.5,53.2,16.4c0.2,14.6,17.9,21.6,20.2,5.6c-3.4,2.1-6.1,5-8.3,0.2
	c-8.7-19.2-3.6-44-34.3-46.8C106.5,2.3,96.6,18.2,96.1,28.9z"/>
<path class="st5" d="M149,46.6c-1.4,9.8-14.7,16.2-29.5,14c-14.8-2.1-25.8-11.9-24.4-21.8c1.4-9.8,14.7-16.2,29.5-14.1
	C139.4,26.9,150.4,36.7,149,46.6z"/>
<path class="st6" d="M134.6,42.5c1,0.1,1.6,1.3,1.5,2.7c-0.2,1.3-1.1,2.4-2,2.3h0c-1-0.1-1.6-1.3-1.5-2.7
	C132.7,43.4,133.6,42.4,134.6,42.5z M108.1,39.4c1,0.1,1.6,1.3,1.5,2.7c-0.2,1.3-1.1,2.4-2,2.3c-1-0.1-1.6-1.3-1.5-2.7
	C106.2,40.3,107.2,39.3,108.1,39.4C108.1,39.4,108.1,39.4,108.1,39.4z M122.3,52.3c0.1,0,0.2,0.1,0.2,0.3c-0.1,0.9-0.5,1.5-1.1,1.9
	c-0.6,0.4-1.3,0.5-2,0.4c-0.7-0.1-1.4-0.4-1.9-0.9c-0.5-0.5-0.8-1.2-0.7-2.1c0-0.1,0.1-0.2,0.3-0.2c0.1,0,0.3,0.1,0.3,0.3
	c0,0,0,0,0,0c-0.1,0.7,0.2,1.3,0.6,1.7c0.4,0.4,1,0.7,1.6,0.7c0.6,0.1,1.2,0,1.6-0.3c0.5-0.3,0.8-0.8,0.8-1.5
	C122,52.4,122.1,52.3,122.3,52.3C122.3,52.3,122.3,52.3,122.3,52.3z"/>
<path class="st4" d="M117.9,21.3c-4.4-0.1-7.4,0.9-9.9,2.3l-2.2-0.3l-6.9,2.8l-2.4,7.6l-1.3,6.2c2.2-4.6,5.5-9.1,12.4-12.4
	c13.7,5.3,19.6,16.3,40.7,12l-4.6-11l-20.4-6.8C121.3,21.5,119.5,21.3,117.9,21.3z"/>
<path class="st5" d="M97.5,37.2C99,40,98.8,43.1,97,44c-1.8,0.9-5.3,1.8-5.9-3.4c-0.4-3-2-9.5-1.2-10.4C91.3,28.8,96,34.4,97.5,37.2
	L97.5,37.2z"/>
<path class="st0" d="M95.3,40.1c5-27.7,56-13.5,53.9,5.7c2.2,2.8,4.3,0.7,5.6-2.8C165.9,13.5,78.6,7.2,95.3,40.1z"/>
<path class="st3" d="M173.8,53.4l-1.5-1.1l0.9,1.4l-1.4-1.2l0.7,1.5l-1.3-1.3l0.6,1.5l-1.1-1.5l0.4,1.6l-1-1.6l0.3,1.6l-0.8-1.7
	l0.1,1.6l-0.6-1.7l-0.1,1.6l-0.4-1.8l-0.3,1.6l-0.2-1.8l-0.4,1.6l0-1.8l-0.6,1.5l0.2-1.8l-0.7,1.4l0.3-1.8l-0.9,1.4l0.5-1.8l-1,1.3
	l0.7-1.7l-1.2,1.2l0.9-1.6l-1.3,1l1.1-1.5l-1.4,0.9l1.2-1.4l-1.5,0.7l1.3-1.3l-1.5,0.6l1.5-1.1l-1.6,0.4l1.6-1l-1.6,0.3l1.7-0.8
	l-1.6,0.1l1.7-0.6l-1.6-0.1l1.8-0.4l-1.6-0.3l1.8-0.2l-1.6-0.4l1.8,0l-1.5-0.6l1.8,0.2l-1.5-0.7l1.8,0.3l-1.4-0.9l1.8,0.5l-1.3-1
	l1.7,0.7l-1.2-1.2l1.6,0.9l-1-1.3l1.5,1.1l-0.9-1.4l1.4,1.2l-0.7-1.5l1.3,1.3L169,41l1.1,1.5l-0.4-1.6l1,1.6l-0.3-1.6l0.8,1.7
	l-0.1-1.6l0.6,1.7l0.1-1.6l0.4,1.8l0.3-1.6l0.2,1.8l0.4-1.6l0,1.8l0.6-1.5l-0.2,1.8l0.7-1.5L174,44l0.9-1.4l-0.5,1.8l1-1.3l-0.7,1.7
	l1.2-1.2l-0.9,1.6l1.3-1l-1.1,1.5l1.4-0.9l-1.2,1.4l1.5-0.7l-1.3,1.3l1.5-0.6l-1.5,1.1l1.6-0.4l-1.6,1l1.6-0.3l-1.7,0.8l1.6-0.1
	l-1.7,0.6L177,49l-1.8,0.4l1.6,0.3l-1.8,0.2l1.6,0.4l-1.8,0l1.5,0.6l-1.8-0.2l1.5,0.7l-1.8-0.4l1.4,0.9l-1.8-0.5l1.3,1l-1.7-0.7
	l1.1,1.2l-1.6-0.9L173.8,53.4z"/>
<path class="st5" d="M146.3,42.6c-1.5,2.8-1.3,5.9,0.5,6.8c1.8,0.9,5.3,1.9,5.9-3.4c0.4-3,2-9.5,1.2-10.4
	C152.6,34.2,147.9,39.8,146.3,42.6z"/>
<path class="st5" d="M87.5,67c-0.3-1.9,1.9-3.7,4.9-4.1c3.1-0.4,5.9,0.8,6.3,2.6c0.4,1.8-2.5,5.8-5.7,6.3
	C89.8,72.2,87.9,68.8,87.5,67z"/>
<path class="st5" d="M158,67c0.3-1.9-1.8-3.7-4.9-4.1c-3.1-0.4-5.9,0.8-6.3,2.6c-0.4,1.8,2.5,5.8,5.7,6.3
	C155.7,72.2,157.6,68.8,158,67z"/>
</svg>
